<svg width="109" height="107" viewBox="0 0 109 107" fill="none" xmlns="http://www.w3.org/2000/svg">
<path d="M52.6904 0.121715C44.8667 0.907341 38.3842 6.98211 36.7236 15.1039C36.4256 16.5313 36.3191 19.6517 36.5107 21.2119C36.9152 24.5978 38.7355 30.1857 40.8857 34.645C41.9927 36.9576 44.0897 40.5759 45.0902 41.9259C45.1541 42.0144 47.2937 40.1222 48.5284 38.894C50.0187 37.3891 51.3812 35.7847 52.5627 34.1471C53.691 32.5647 53.6591 32.7086 53.063 31.6795C50.7106 27.6629 48.4326 21.3557 48.4326 18.8882C48.4326 16.0555 50.338 13.4884 52.9778 12.7802C53.7655 12.57 55.2451 12.57 56.0328 12.7802C57.4592 13.1675 58.7791 14.1745 59.5987 15.4912C60.5567 17.0293 60.7803 18.7001 60.3119 20.725C58.9601 26.5674 55.8625 32.7196 51.9453 37.4002C50.3061 39.3587 48.2091 41.439 46.6018 42.7004L45.995 43.1651L46.7827 44.4266C48.4326 47.049 50.1145 50.3575 51.2108 53.1348C51.4663 53.7877 51.7111 54.3299 51.7431 54.3299C51.8602 54.3299 53.9252 52.7033 55.2451 51.5636C60.61 46.9162 65.0381 41.0738 68.2208 34.4126C70.3178 30.0308 72.0954 24.5425 72.4893 21.2119C72.6809 19.6628 72.5744 16.5313 72.287 15.1371C70.3071 5.57683 61.9831 -0.807757 52.6904 0.121715Z" fill="#005BAC"/>
<path d="M18.3618 26.1801C16.2861 26.4789 15.3707 26.6891 13.9443 27.1871C11.1661 28.1719 8.14308 30.2964 6.22706 32.6422C4.11945 35.2093 2.75695 38.1526 2.10763 41.5164C1.75636 43.3311 1.75636 46.6285 2.10763 48.4432C3.71495 56.7863 10.0484 62.8279 18.1489 63.7242C22.0342 64.1668 27.3139 63.8901 31.8804 63.016C34.2541 62.5623 38.1074 61.5001 38.1074 61.2898C38.1074 61.2345 37.8626 60.5595 37.5646 59.785C36.4469 56.8306 34.7225 53.5774 33.0193 51.1984C32.3487 50.269 32.1997 50.114 32.0081 50.1694C31.4014 50.3464 28.5593 50.9107 27.4629 51.0767C25.6214 51.3423 20.2672 51.4197 19.0005 51.1984C16.7119 50.7779 14.8385 49.096 14.1572 46.8498C13.146 43.4528 15.0194 39.912 18.3725 38.8829C19.256 38.6063 20.8101 38.6284 21.7149 38.9382C23.3328 39.4694 26.9307 42.1582 29.677 44.8692C33.7645 48.9079 37.2665 54.4184 39.1719 59.8071C39.3741 60.3493 39.5338 60.814 39.5444 60.8362C39.5551 60.8472 40.3002 60.6591 41.205 60.4157C43.1316 59.8956 44.3771 59.6301 46.2611 59.3202C47.911 59.0436 50.3167 58.7559 51.0192 58.7559C51.3173 58.7559 51.5195 58.7006 51.5195 58.6342C51.5195 58.4018 50.7744 56.1777 50.1251 54.4848C49.4119 52.6037 47.9323 49.428 46.9317 47.6244C42.7484 40.0669 36.4362 33.3061 29.4428 28.9243C27.431 27.6629 25.2808 26.8109 23.0241 26.3904C22.13 26.2244 19.0324 26.0806 18.3618 26.1801Z" fill="#005BAC"/>
<path d="M87.0403 26.2244C84.6027 26.5453 82.1864 27.3641 80.132 28.5592C76.8855 30.4624 73.0002 33.6491 69.8281 37.024C67.8482 39.1264 65.1445 42.457 65.1445 42.8C65.1445 42.8664 65.5916 43.2094 66.1345 43.5635C68.8914 45.4114 71.5525 46.7392 74.7672 47.8678L76.1616 48.3547L76.8429 47.558C80.0256 43.8069 85.0285 39.6796 87.2852 38.9383C88.19 38.6284 89.7441 38.6063 90.6276 38.8829C92.8948 39.58 94.5235 41.4169 95.0131 43.818C95.6837 47.1265 93.3951 50.5677 90.106 51.1763C88.9244 51.3976 84.5602 51.3976 82.5377 51.1763C76.3 50.4903 70.1262 48.1998 65.07 44.6811C64.6442 44.3934 64.261 44.1499 64.2185 44.1499C64.1652 44.1499 63.9523 44.3934 63.7395 44.6811C62.377 46.5843 59.0133 50.2358 56.8737 52.1611C56.267 52.6922 55.7773 53.168 55.7773 53.2123C55.7773 53.2898 55.8944 53.3783 58.2362 55.0049C63.0795 58.3797 68.2634 60.7809 73.9263 62.2747C78.4396 63.4697 83.5915 64.0783 87.9238 63.9123C91.2875 63.7906 92.6607 63.5693 94.7896 62.839C101.049 60.6813 105.572 55.2926 106.892 48.4432C107.201 46.7945 107.233 43.4528 106.946 41.8263C105.519 33.7819 99.8138 27.851 92.0752 26.3793C91.0108 26.1801 88.0729 26.0916 87.0403 26.2244Z" fill="#005BAC"/>
<path d="M57.6508 58.0035C56.5225 61.7989 55.8625 65.1184 55.4367 69.2125C55.2238 71.2374 55.2558 77.5224 55.4899 79.6138C56.0967 85.0578 57.3102 90.015 59.1304 94.4742C61.4615 100.228 66.2835 104.355 72.2231 105.672C73.873 106.048 77.0132 106.104 78.7163 105.805C81.1326 105.373 83.3147 104.544 85.1882 103.348C90.0634 100.261 93.1716 95.2488 93.8741 89.2958C94.5447 83.7079 92.4584 77.6442 88.488 73.6828C85.135 70.3301 79.5253 66.6233 74.5117 64.4324C72.6489 63.6135 70.4881 62.7947 70.4136 62.8722C70.3178 62.9718 69.6365 65.8598 69.4023 67.1101C69.0724 68.9912 68.8701 71.0051 68.7956 73.3619L68.7317 75.5197L69.6259 75.8959C72.6489 77.1684 76.3639 79.492 79.0995 81.8157C81.1539 83.5529 81.9097 85.0357 81.899 87.2487C81.8884 89.0191 81.3136 90.4133 80.1107 91.6748C78.1096 93.7329 74.9588 94.087 72.5957 92.4936C71.031 91.4424 70.371 90.3248 69.264 86.8061C67.9121 82.535 67.3373 78.7507 67.3373 74.1365C67.3373 70.3744 67.6673 67.5749 68.5295 64.0672C68.7637 63.1267 68.9446 62.3521 68.9446 62.3411C66.0919 61.1903 64.8252 60.626 63.2285 59.7961C61.5254 58.9109 59.2368 57.583 58.3107 56.9413L58.0233 56.7421L57.6508 58.0035Z" fill="#005BAC"/>
<path d="M51.3599 60.2719C45.7928 60.637 39.8532 62.0755 34.7544 64.3106C30.0708 66.3466 25.3766 69.3232 21.5978 72.6538C15.0514 78.4076 13.1567 87.7909 16.9355 95.6361C19.4582 100.848 23.9396 104.411 29.5918 105.694C30.5818 105.916 30.9969 105.949 33.1577 105.938C35.2973 105.938 35.7444 105.905 36.7237 105.694C42.6633 104.355 47.3682 100.405 49.7632 94.7398C52.0305 89.3843 53.4888 82.5239 53.723 76.1504L53.7868 74.225L52.7863 74.3025C49.0181 74.568 46.3889 75.066 43.0465 76.1504L41.6521 76.593L41.5243 77.9982C41.1518 82.0481 39.9064 87.0938 38.5865 89.9043C37.5859 92.051 35.7444 93.3345 33.4771 93.4673C31.7207 93.5669 30.1241 92.9473 28.8893 91.6637C27.6758 90.4133 27.101 88.9749 27.101 87.1934C27.0904 85.0246 27.8781 83.5308 29.9005 81.8157C33.5835 78.6953 37.8201 76.2942 42.3333 74.7561C45.7715 73.5943 48.571 73.0521 52.8075 72.7423L53.7336 72.6759L53.7975 71.3923C53.9997 67.7851 54.5639 63.9344 55.4048 60.4932L55.4793 60.1944L53.691 60.2165C52.7011 60.2276 51.6579 60.2497 51.3599 60.2719Z" fill="#005BAC"/>
</svg>
