<svg width="109" height="107" viewBox="0 0 109 107" fill="none" xmlns="http://www.w3.org/2000/svg">
<path d="M43.2383 10.4959C43.611 19.5631 49.3476 28.2028 57.6728 32.2428C59.4021 33.0875 60.479 33.5047 62.581 34.1255C65.4493 34.9803 66.7126 35.4789 68.5868 36.4864C75.0378 39.9769 79.77 46.0522 81.5096 53.0739C82.0791 55.4043 82.193 56.3405 82.193 59.0677C82.193 61.6831 82.1205 62.4463 81.6649 64.563C79.5318 74.4035 71.6415 82.2292 61.6387 84.4069C59.4746 84.875 58.5633 84.9666 55.9954 84.9666C53.1789 84.9666 51.9984 84.8241 49.5754 84.2339C39.6762 81.8119 32.0551 73.9151 30.1187 64.0949C29.7252 62.0698 29.6113 60.5942 29.6735 58.4165C29.7874 54.468 30.6468 51.0691 32.3968 47.6397C35.6689 41.2286 41.364 36.5169 48.3742 34.4002C49.3683 34.0949 50.1449 33.9321 52.8682 33.4436L53.2617 33.3724L52.0398 32.4972C49.7618 30.8588 47.7426 28.8846 45.9098 26.5237C45.1746 25.5671 43.9942 23.7659 43.5903 22.9722C43.435 22.6872 43.2693 22.4125 43.2072 22.3819C42.9483 22.2191 38.8168 23.9593 36.7458 25.0888C27.1365 30.3602 20.2403 39.1628 17.5377 49.6037C16.7196 52.7686 16.3572 55.6688 16.3572 59.1186C16.3572 61.561 16.4711 63.0365 16.8128 65.1736C18.9873 78.6267 27.8407 89.7495 40.6185 95.0717C43.6628 96.3438 47.4423 97.3309 51.0251 97.8092C53.0028 98.0636 58.8429 98.0636 60.8103 97.8092C67.8827 96.8628 73.992 94.4713 79.5111 90.4619C91.8644 81.4761 97.7977 66.3133 94.7637 51.4253C92.7445 41.4932 86.718 32.6092 78.1546 26.9206C74.7686 24.6614 71.2376 23.023 67.2303 21.8324C66.288 21.5576 65.294 21.232 65.0144 21.1099C63.7097 20.5604 62.3014 19.3494 61.5455 18.118C60.6964 16.7239 60.3547 15.3806 60.4272 13.732C60.4997 12.175 60.9242 10.903 61.7837 9.71234C61.9701 9.45793 62.1461 9.19335 62.1979 9.12211C62.26 9.03053 60.334 9 52.7232 9H43.1761L43.2383 10.4959Z" fill="#F5493C"/>
<path d="M16.6703 75.5106C15.4516 78.3977 13.207 80.964 10.6883 82.3388C8.77891 83.3928 7.10312 83.8281 5.03125 83.8281C4.33047 83.8281 3.58906 83.7938 3.38594 83.7479C3.12187 83.6907 3 83.7136 3 83.8052C3 83.9656 4.23906 86.5434 5.07187 88.09C6.69687 91.1375 8.88047 94.5516 10.9523 97.2553L11.2977 97.7021L12.3031 97.3813C16.843 95.9378 21.2914 92.7414 24.5516 88.5712L25.2422 87.689L24.0133 86.1424C21.3727 82.8429 19.1891 79.2913 17.5641 75.6366C17.3203 75.0753 17.0969 74.6285 17.0766 74.6285C17.0562 74.6285 16.8734 75.0294 16.6703 75.5106Z" fill="#F5493C"/>
<path d="M92.4461 75.6252C90.8109 79.2799 88.6172 82.8658 85.9867 86.1424L84.7578 87.6776L85.4484 88.5712C88.2211 92.1113 91.7555 94.9067 95.5641 96.5679C96.6914 97.0606 98.3773 97.6563 98.6312 97.6563C98.9156 97.6563 101.952 93.257 103.516 90.6105C104.887 88.2733 107 84.1489 107 83.8052C107 83.7136 106.878 83.6907 106.624 83.7479C105.934 83.8969 103.73 83.8396 102.785 83.6448C100.246 83.1293 97.9406 81.8003 96.0922 79.7839C94.9852 78.5695 94.1523 77.3208 93.4617 75.797C93.1875 75.1784 92.9437 74.6628 92.9336 74.6399C92.9133 74.6285 92.6898 75.0638 92.4461 75.6252Z" fill="#F5493C"/>
</svg>
