<svg width="109" height="107" viewBox="0 0 109 107" fill="none" xmlns="http://www.w3.org/2000/svg">
<g clip-path="url(#clip0_218_161)">
<path d="M50.6702 0.0649275C42.8248 0.723215 36.4911 2.43685 29.9231 5.69694C25.9419 7.6718 22.248 10.0751 18.9481 12.8545C16.7233 14.7249 13.7853 17.7133 11.8905 20.0434C6.04636 27.2219 2.24609 35.5811 0.702568 44.6195C0.138383 47.8796 0.0638677 48.9871 0.0532227 53.3966C0.0532227 57.6285 0.106448 58.5689 0.542893 61.4424C2.17158 72.1735 7.10021 82.1732 14.6156 90.0204C20.63 96.3002 27.6131 100.856 35.7246 103.792C41.7071 105.955 47.7854 107 54.4066 107C59.1543 107 62.4223 106.655 66.7441 105.683C75.1856 103.792 82.8394 100.041 89.6841 94.4403C91.1425 93.2491 94.4318 90.0622 95.7092 88.6098C97.9234 86.0811 100.276 82.8315 101.819 80.2088C105.173 74.4618 107.504 67.8685 108.473 61.3692C109.196 56.4686 109.196 50.5336 108.473 45.633C106.855 34.787 101.713 24.4424 94.0592 16.6161C89.4606 11.9245 84.8087 8.53907 79.0923 5.69694C73.1524 2.76077 67.319 1.05758 60.4636 0.25301C59.101 0.0962745 51.9689 -0.0395625 50.6702 0.0649275ZM60.3039 7.60911C70.4912 8.94658 79.3798 13.0635 86.7887 19.8762C90.7912 23.5543 93.9953 27.7757 96.5502 32.7599C99.9459 39.3532 101.553 46.0301 101.553 53.5011C101.553 57.5344 101.128 61.0244 100.18 64.7338C99.3072 68.1297 98.3385 70.6793 96.646 74.0334C92.1005 83.0613 84.8406 90.2294 75.5795 94.8165C70.6402 97.2615 65.4561 98.7662 59.3991 99.4976C57.8875 99.6857 51.1173 99.6857 49.6057 99.4976C43.5593 98.7662 38.6413 97.3556 33.6382 94.9105C20.0232 88.2754 10.4747 75.6425 8.04762 61.0557C7.55795 58.1091 7.41956 56.1761 7.48343 52.6652C7.5473 48.5274 7.84536 46.2182 8.79277 42.4252C13.1892 24.7977 27.9218 11.2245 46.1461 8.00617C47.4554 7.77629 49.5099 7.51506 50.9895 7.37923C51.2557 7.35833 53.0973 7.35833 55.0879 7.36878C57.962 7.40013 59.0372 7.45237 60.3039 7.60911Z" fill="#00693F"/>
<path d="M62.5926 19.0717V22.1541H55.833H49.0734V48.8513V75.5485H40.2913H31.5092V53.7101V31.8717H33.4253H35.3414V51.986V72.1003H40.2913H45.2412V47.1272V22.1541H33.4253H21.6093V53.7101V85.2661H40.2913H58.9733V58.5689V31.8717H60.7829H62.5926V38.6113V45.3509H69.2989H76.0053V60.4497V75.5485H74.2489H72.4924V62.3305V49.1125H67.5425H62.5926V67.1893V85.2661H74.2489H85.9051V60.4497V35.6333H79.1988H72.4924V33.7525V31.8717H79.1988H85.9051V27.0129V22.1541H79.1988H72.4924V19.0717V15.9892H67.5425H62.5926V19.0717Z" fill="#00693F"/>
</g>
<defs>
<clipPath id="clip0_218_161">
<rect width="109" height="107" fill="white"/>
</clipPath>
</defs>
</svg>
