<svg width="109" height="107" viewBox="0 0 109 107" fill="none" xmlns="http://www.w3.org/2000/svg">
<g clip-path="url(#clip0_91_93)">
<path d="M51.2454 0.0705512C36.827 1.02086 23.2447 7.51238 13.8563 17.939C6.63335 25.9697 2.16528 35.3523 0.602833 45.8325C-1.34338 58.8557 1.75411 72.1466 9.25114 83.1085C14.5415 90.8181 21.2025 96.6671 29.5082 100.91C45.818 109.208 65.3623 108.954 81.4254 100.227C91.1565 94.9405 98.8728 87.057 103.93 77.2059C106 73.1772 107.823 67.8233 108.672 63.2993C109.207 60.3949 109.221 60.4217 108.234 62.242C104.643 68.8272 99.2703 74.6093 92.9656 78.6649C86.894 82.5598 80.9594 84.7281 73.3939 85.8122C71.0502 86.1468 64.1288 86.1468 61.6755 85.8122C53.1231 84.6344 45.8454 81.6496 39.0611 76.5367C36.7585 74.7967 31.8793 69.9783 31.0569 68.613C31.0021 68.5193 31.3722 68.6933 31.893 69.0012C33.2773 69.831 35.9362 71.1695 37.4164 71.7718C47.4627 75.9076 58.4684 76.3627 68.7202 73.0567C77.9579 70.072 85.9483 64.1961 91.4032 56.3394C95.3915 50.5974 97.7489 44.494 98.7631 37.1994C99.1058 34.7768 99.1058 29.4631 98.7631 26.9602C98.3657 24.0156 98.3109 23.962 98.3794 26.5587C98.4479 29.3159 98.2286 31.5913 97.653 33.88C95.1174 44.0389 87.0722 51.9091 76.7381 54.3317C71.5573 55.5363 66.0613 55.2686 60.9902 53.5688C47.0515 48.8841 39.1707 34.5894 42.8301 20.6025C45.2972 11.1396 52.9449 3.52377 62.5664 0.927165L63.6491 0.632704L61.8811 0.405166C58.3587 -0.0365255 54.6582 -0.156987 51.2454 0.0705512Z" fill="#992F38"/>
<path d="M98.1601 23.748C98.1601 23.9353 98.1874 24.0022 98.2282 23.9085C98.2555 23.8283 98.2555 23.6678 98.2282 23.5742C98.1874 23.4939 98.1601 23.5608 98.1601 23.748Z" fill="#992F38"/>
</g>
<defs>
<clipPath id="clip0_91_93">
<rect width="109" height="107" fill="white"/>
</clipPath>
</defs>
</svg>
