<svg width="109" height="107" viewBox="0 0 109 107" fill="none" xmlns="http://www.w3.org/2000/svg">
<path d="M64.2958 0.443991C63.7955 0.679853 63.061 1.03365 62.6458 1.22662C62.2413 1.43032 61.3258 1.85916 60.6233 2.20223C59.9207 2.54531 58.9201 3.02775 58.3878 3.27433C57.8662 3.53164 56.823 4.0248 56.0672 4.3786L54.7153 5.03258L53.7785 4.60374C53.2676 4.36788 52.7566 4.13201 52.6395 4.07841C52.5224 4.0248 52.0434 3.79966 51.575 3.58524C51.1066 3.37082 50.5105 3.11352 50.2444 3.00631C49.9783 2.8991 49.4993 2.6954 49.1799 2.54531C48.6157 2.288 48.1686 2.0843 45.4542 0.872831C44.7835 0.583364 44.23 0.347502 44.2193 0.358223C44.2087 0.368944 44.1661 7.30543 44.1235 15.7643C44.0809 24.2232 44.0384 31.1597 44.0277 31.1704C44.0064 31.2025 38.2368 26.5818 36.7678 25.3596C36.4165 25.0594 35.9801 24.7163 35.8098 24.5877C35.352 24.2339 33.9788 23.1296 32.6376 22.0361C31.9882 21.5 29.0609 19.1414 26.1441 16.7828C23.2167 14.4242 20.5768 12.28 20.2574 12.0227C19.9381 11.7654 19.6613 11.5724 19.64 11.5938C19.6294 11.6153 19.0971 14.2205 18.4691 17.3724C17.841 20.5244 17.2875 23.194 17.2343 23.2904C17.181 23.3977 17.0852 23.4834 17.032 23.4834C16.9788 23.4834 16.372 23.7514 15.6801 24.0838C12.4759 25.6276 11.5072 26.0779 10.2724 26.6461C9.98501 26.7855 8.98438 27.2572 8.04762 27.7075C6.18475 28.6188 6.2912 28.4901 6.99377 29.0583C7.10022 29.1441 7.43021 29.4121 7.71763 29.648C8.57987 30.3449 8.64374 30.3985 8.77148 30.5057C8.83535 30.5593 9.13341 30.8059 9.42083 31.0417C10.1979 31.6635 10.3363 31.7815 10.4747 31.8994C10.5386 31.953 10.8366 32.1996 11.124 32.4355C11.4221 32.6606 11.6776 32.8857 11.7095 32.9179C11.7414 32.9501 12.2418 33.3682 12.8166 33.8399C14.3069 35.0299 15.0414 35.6303 16.2336 36.6166C16.8085 37.0884 17.5749 37.7102 17.9368 38.0104C19.7571 39.4792 20.7045 40.2618 20.7578 40.3154C20.7897 40.3476 21.1729 40.6585 21.6094 41.0123C22.0458 41.366 22.429 41.677 22.461 41.7091C22.5035 41.752 23.5787 42.6311 24.3025 43.2101C24.4196 43.2958 24.558 43.4245 24.6325 43.4781C24.739 43.5746 25.367 44.0892 26.0057 44.6038C26.1228 44.6896 26.2612 44.8182 26.3357 44.8718C26.4422 44.9683 27.0702 45.4829 27.7089 45.9975C27.826 46.0833 27.9644 46.2119 28.0389 46.2655C28.1028 46.3299 28.3902 46.5657 28.6883 46.8016C28.9757 47.0375 29.3057 47.3055 29.4121 47.3912C30.2105 48.0345 30.2744 48.1096 30.0615 48.1739C29.8912 48.2275 24.2067 49.514 23.0997 49.7499C22.8974 49.7928 19.7784 50.4896 16.1804 51.3044C12.5824 52.1085 9.3676 52.8375 9.04825 52.9018C2.16094 54.4349 8.16107e-07 54.9496 0.0212908 55.0675C0.0425808 55.1318 0.276771 55.4427 0.542896 55.7644C1.11773 56.4398 2.65061 58.2945 3.1935 58.9699C3.39576 59.2272 3.7364 59.6346 3.93865 59.8812C4.14091 60.1171 4.50284 60.5566 4.73703 60.8354C4.97122 61.1249 5.21605 61.4143 5.26928 61.4786C5.33315 61.543 5.56734 61.8432 5.80153 62.1326C6.33378 62.808 6.51474 63.0225 7.21731 63.8373C7.82408 64.5556 7.85601 64.6842 7.61118 65.6062C7.52602 65.9386 7.2386 67.0964 6.98312 68.19C6.24862 71.2455 5.54605 74.1616 5.31186 75.0943C5.20541 75.5553 5.1096 75.9842 5.1096 76.0485C5.1096 76.1986 5.29057 76.1557 9.84663 75.105C11.0176 74.837 12.1672 74.569 12.4014 74.5261C12.8592 74.4296 14.9882 73.9472 18.3626 73.1753C19.5336 72.9072 20.8961 72.5856 21.3965 72.4784C21.8968 72.3605 23.4722 72.0067 24.9093 71.6743C26.3464 71.3527 28.2625 70.9131 29.1673 70.7094C30.0721 70.5057 31.754 70.1198 32.8931 69.8625C34.0321 69.6052 34.9795 69.3907 34.9795 69.4015C34.9901 69.4122 32.2118 75.2873 28.8054 82.4596C21.2687 98.3374 21.6094 97.6084 21.6413 97.6299C21.6519 97.6513 24.0151 97.587 26.8786 97.5119C29.7528 97.4262 32.5311 97.3511 33.0634 97.3511H34.0214L35.7566 99.6776C36.704 100.964 37.5662 102.122 37.662 102.251C37.7578 102.379 37.9068 102.572 37.9814 102.679C38.833 103.891 41.1749 106.946 41.2707 106.968C41.3345 107 41.5155 106.753 41.6645 106.443C41.8029 106.132 42.729 104.159 43.6977 102.068C45.4222 98.391 45.9438 97.2761 46.6783 95.6894C46.8699 95.2712 47.2425 94.4672 47.5193 93.8882C48.7115 91.3581 49.0202 90.7041 49.3928 89.9C49.6163 89.4283 49.9889 88.6242 50.2338 88.0989C51.1066 86.2227 51.5324 85.3221 51.9582 84.4001C52.1924 83.8855 52.895 82.3739 53.5231 81.0337L54.6514 78.5894L55.0985 79.5328C55.3434 80.0474 55.9075 81.2374 56.3653 82.1809C57.1211 83.7676 57.4936 84.5395 59.1862 88.0774C60.7936 91.4331 61.2726 92.4409 61.6878 93.3307C61.9433 93.8561 62.6565 95.3463 63.2739 96.6435C63.8913 97.93 64.4023 99.0021 64.4023 99.0129C64.4023 99.0343 65.1048 100.482 65.9564 102.24C66.808 104.009 67.649 105.767 67.8406 106.174C68.0216 106.571 68.2132 106.882 68.2557 106.871C68.309 106.85 68.9796 105.992 69.7567 104.952C70.5338 103.912 72.0986 101.822 73.2376 100.289C74.3766 98.7663 75.356 97.469 75.4198 97.4262C75.5263 97.3404 85.1706 97.4154 86.8951 97.5226C87.4061 97.5548 87.8213 97.5548 87.8213 97.5226C87.8213 97.4905 86.7461 95.3248 85.4368 92.7196C84.1274 90.1037 81.562 84.9791 79.7311 81.3232C77.9001 77.6674 75.8243 73.529 75.1218 72.1246C74.4192 70.7309 73.8657 69.5516 73.8976 69.5194C73.9295 69.4872 74.6215 69.6159 75.4305 69.7874C77.4104 70.227 82.0836 71.2133 84.5745 71.7279C85.6923 71.9638 87.2677 72.2961 88.0874 72.4677C88.907 72.6392 90.7273 73.0252 92.1325 73.3253C93.5376 73.6148 95.5282 74.0437 96.5502 74.2581C102.192 75.4481 104.268 75.8769 104.3 75.8555C104.332 75.8233 103.916 74.0973 103.097 70.9238C102.895 70.1519 102.447 68.383 102.086 66.9785L101.436 64.4162L101.692 64.0838C101.841 63.8909 102.043 63.6336 102.149 63.5049C102.362 63.2583 102.426 63.194 103.097 62.347C103.331 62.0469 103.565 61.7574 103.629 61.6931C103.682 61.6287 103.885 61.3822 104.055 61.157C104.236 60.9319 104.545 60.5459 104.747 60.3101C104.949 60.0635 105.268 59.6775 105.439 59.4417C105.62 59.2165 106.003 58.7341 106.29 58.3803C106.855 57.6941 107.802 56.5255 108.558 55.5714C108.813 55.2497 109.005 54.971 108.984 54.9603C108.962 54.9388 107.248 54.5529 105.173 54.1026C103.097 53.6416 101.223 53.2235 101.021 53.1806C100.01 52.934 99.3604 52.7839 95.0599 51.8405C92.5157 51.283 90.2164 50.7684 89.9503 50.704C89.0135 50.4789 88.5664 50.3824 83.9891 49.3746C81.4449 48.8171 79.2307 48.324 79.0817 48.2811C78.8156 48.206 79.0604 47.9809 82.4668 45.247C84.4894 43.6282 86.9803 41.6126 88.0129 40.7764C91.3022 38.1283 97.9659 32.7785 98.5727 32.3068C98.8921 32.0602 99.254 31.7708 99.3711 31.6635C99.552 31.5027 100.489 30.7415 102.724 28.9511L103.097 28.6509L101.66 27.9541C100.872 27.5788 99.8607 27.0964 99.4243 26.882C98.2214 26.3245 96.8695 25.6705 95.326 24.9308C94.5702 24.5662 93.5908 24.1052 93.165 23.9123C92.2922 23.5049 92.4305 23.7622 91.8664 21.3928C91.6854 20.6209 91.3447 19.2057 91.1106 18.2301C90.8764 17.2545 90.4399 15.4748 90.1525 14.2634C89.8651 13.0519 89.599 12.0012 89.5777 11.9262C89.5138 11.7546 89.0241 12.0977 87.6084 13.2985C87.5125 13.3842 87.2677 13.5772 87.0761 13.7273C86.7674 13.9525 86.1819 14.4242 85.3303 15.121C85.2239 15.2068 85.0855 15.3355 85.011 15.3891C84.9471 15.4534 83.4568 16.6649 81.7004 18.0693C79.944 19.4845 78.4537 20.6852 78.3898 20.7496C78.3259 20.8032 78.113 20.9747 77.9214 21.1248C77.7298 21.2749 77.5169 21.4357 77.453 21.5C77.3892 21.5536 77.0698 21.8109 76.7505 22.0575C76.4311 22.3041 76.0372 22.6257 75.8882 22.7544C75.7285 22.8938 75.4518 23.1189 75.2602 23.269C75.0685 23.4191 74.8556 23.5906 74.7918 23.6442C74.7279 23.7086 73.3547 24.8128 71.7473 26.1101C70.1399 27.4073 68.7667 28.5116 68.7028 28.5759C68.639 28.6295 68.4261 28.801 68.2345 28.9511C68.0428 29.1012 67.8299 29.262 67.7661 29.3264C67.7022 29.38 67.3829 29.6373 67.0635 29.8839C66.7442 30.1304 66.3077 30.4842 66.1055 30.6665C65.9032 30.838 65.7009 30.9881 65.6584 30.9881C65.6051 30.9881 65.5626 29.262 65.5519 27.15C65.5413 25.0487 65.5306 23.1082 65.52 22.8402C65.5093 22.5721 65.488 18.7126 65.4561 14.2634C65.3922 2.38449 65.3603 0.00442966 65.2751 0.00442966C65.2326 0.00442966 64.7961 0.197408 64.2958 0.443991ZM54.9708 7.2411C55.0666 8.06662 55.3327 10.4252 55.5563 12.4944C56.0459 16.8042 56.0246 16.622 56.7379 22.9474C57.0359 25.574 57.3446 28.34 57.4298 29.1119C57.5256 29.8731 57.6853 31.3526 57.8024 32.3818C57.9194 33.4111 58.1536 35.5338 58.3346 37.0991C58.5156 38.6644 58.7604 40.83 58.8775 41.9235C58.9946 43.0064 59.1117 43.9176 59.1223 43.9391C59.1649 43.9713 60.8788 42.9635 61.9007 42.2988C62.7416 41.7627 63.3484 41.3875 67.0635 39.0825C68.3835 38.2677 69.7035 37.4529 69.9909 37.2599C70.2889 37.0776 70.9915 36.6381 71.5663 36.2843C72.1412 35.9412 72.8118 35.5231 73.0566 35.3623C73.3015 35.2015 73.6528 34.9871 73.8231 34.8906C74.004 34.7941 74.3873 34.5582 74.6747 34.3652C74.9727 34.1723 76.2821 33.3575 77.6021 32.5427C80.9126 30.495 81.1681 30.3341 81.6791 30.0125C82.3284 29.6051 84.4787 28.265 85.16 27.8469C85.4794 27.6539 86.6822 26.9034 87.8213 26.1958C90.6954 24.4161 91.3341 24.0302 91.3341 24.0838C91.3341 24.1052 90.9189 24.5555 90.408 25.0701C89.8864 25.5847 87.438 28.0934 84.9471 30.6558C82.4562 33.2181 79.9972 35.7482 79.4649 36.2843C78.624 37.142 75.0579 40.7978 67.3935 48.6778C66.2225 49.8892 65.2539 50.9077 65.2539 50.9399C65.2539 50.9828 65.3603 51.0364 65.4987 51.0686C65.7009 51.1114 67.2232 51.6689 70.8425 53.0198C71.6621 53.3307 73.4186 53.9739 80.3165 56.5255C80.9659 56.7614 81.9452 57.1259 82.4988 57.3296C83.0523 57.5333 83.7549 57.7906 84.0423 57.8978C84.3403 58.005 85.0323 58.2623 85.5858 58.4768C86.1393 58.6805 87.6084 59.2165 88.8325 59.6775C90.0673 60.1278 91.9089 60.8139 92.9309 61.1892C94.6447 61.8217 96.0498 62.347 97.8276 62.9903C98.2108 63.1297 98.924 63.3977 99.4137 63.5692C100.382 63.923 100.627 64.0731 100.116 63.9766C99.9459 63.9445 99.4882 63.8801 99.105 63.848C98.7217 63.8158 97.7956 63.7193 97.0292 63.6336C96.2734 63.5478 94.9321 63.4084 94.0486 63.3119C93.1757 63.2154 91.8025 63.0761 91.0148 62.9903C90.227 62.9045 87.7574 62.6365 85.5326 62.4006C83.3078 62.1648 80.8381 61.9075 80.0504 61.811C79.2627 61.7252 77.9001 61.5859 77.0166 61.4894C76.1437 61.3929 74.8024 61.2535 74.036 61.1677C66.3184 60.3315 63.2207 60.0206 63.1674 60.0742C63.0929 60.1492 63.721 62.079 66.7442 71.0847C67.9257 74.5904 69.2138 78.45 69.6183 79.6615C70.0228 80.8729 71.3641 84.8719 72.5989 88.5599C75.0898 95.9681 75.1643 96.1718 75.1005 96.1718C75.0685 96.1718 74.7705 95.7108 73.3973 93.5023C73.0886 93.0091 72.0986 91.4546 71.3747 90.3289C71.0767 89.8679 70.2889 88.6135 68.9264 86.4693C68.7454 86.1691 68.3622 85.5687 68.0748 85.1292C67.5425 84.3037 67.1806 83.7354 66.4674 82.5883C66.2438 82.2238 65.669 81.3339 65.2113 80.6049C64.7429 79.8759 64.1894 79.0182 63.9871 78.6858C63.4336 77.8067 61.5707 74.8585 60.932 73.8721C60.6446 73.4111 60.1336 72.607 59.8143 72.1032C59.4949 71.5993 58.8988 70.6451 58.473 69.9804C58.0578 69.3157 57.3872 68.2758 56.9933 67.6539C56.6101 67.0321 56.1311 66.2817 55.9395 65.9922C55.7479 65.692 55.4179 65.1667 55.1943 64.8129C54.8111 64.2018 54.7898 64.1803 54.6408 64.384C54.4918 64.5985 53.6402 65.9386 52.6928 67.4502C51.6176 69.1656 51.2983 69.6802 50.6383 70.7094C50.2657 71.2991 49.4886 72.532 48.9244 73.4433C48.3496 74.3546 47.7215 75.3409 47.5406 75.6411C47.2212 76.1235 46.4228 77.3886 45.518 78.8467C45.3371 79.1361 44.9538 79.7579 44.6558 80.2082C44.3684 80.6692 43.9106 81.3875 43.6445 81.8164C43.1868 82.5454 42.8461 83.0922 41.4836 85.2364C41.1749 85.7403 40.4404 86.8981 39.8655 87.8094C39.2907 88.7207 38.6094 89.8142 38.3326 90.2431C38.0665 90.6719 37.6088 91.3902 37.3214 91.8512C35.0114 95.55 34.5217 96.2897 34.6282 95.9038C34.6601 95.7858 35.5011 93.2557 36.5124 90.2753C37.513 87.2948 38.6414 83.9391 39.0139 82.8242C39.3865 81.6984 40.5149 78.3535 41.5155 75.3731C42.5161 72.3926 43.6445 69.0369 44.0171 67.922C44.3897 66.7963 45.1348 64.5877 45.6564 63.0117C46.1887 61.4358 46.6251 60.1278 46.6251 60.1064C46.6251 60.0956 46.4974 60.0956 46.3377 60.1171C46.1674 60.1385 42.3032 60.5674 37.7365 61.0605C29.9337 61.9289 21.9393 62.808 12.9975 63.8051C10.8685 64.041 9.04825 64.2232 8.96309 64.2018C8.86729 64.1803 9.29309 63.9874 9.9105 63.7622C10.5173 63.5371 11.2624 63.2691 11.5498 63.1511C12.6143 62.7544 15.2969 61.7681 16.0207 61.5108C16.9894 61.1677 18.7884 60.503 19.2675 60.3101C19.4697 60.235 20.1936 59.967 20.8642 59.7204C21.5348 59.4738 22.3332 59.1843 22.6206 59.0771C22.9187 58.9699 23.749 58.659 24.4835 58.4017C25.218 58.1337 25.9312 57.8657 26.0803 57.8013C26.2293 57.7477 26.9744 57.469 27.7302 57.1902C28.4967 56.9222 29.4973 56.547 29.9657 56.3754C30.4341 56.2039 30.9344 56.0217 31.0834 55.968C31.2324 55.9252 31.7327 55.7429 32.2011 55.5607C32.6695 55.3784 33.6808 55.0032 34.4366 54.7244C35.203 54.4564 36.2036 54.0812 36.672 53.9096C37.1404 53.7381 37.8323 53.4808 38.2156 53.3414C38.5988 53.202 39.312 52.9447 39.8123 52.7517C40.3126 52.5588 41.1003 52.2693 41.5687 52.1085C42.9952 51.6046 44.2087 51.1436 44.2619 51.09C44.2832 51.0686 44.2406 50.9828 44.1661 50.897C43.719 50.436 37.8749 44.3786 37.4704 43.9605C37.2043 43.6818 36.2036 42.6418 35.235 41.6448C34.2663 40.6477 32.116 38.4071 30.4447 36.6702C28.7734 34.9442 26.5061 32.5748 25.3883 31.4277C24.2812 30.2805 22.6739 28.6188 21.8223 27.7397C20.9707 26.8605 20.0658 25.9171 19.7997 25.6383C18.6181 24.4161 17.841 23.5692 18.0007 23.655C18.0965 23.7086 22.2268 26.303 27.1767 29.4336C32.1373 32.5534 36.3633 35.2229 36.5869 35.3623C36.8104 35.5017 37.1936 35.7375 37.4491 35.8983C41.6539 38.5786 49.9357 43.7676 49.9676 43.7354C49.9783 43.7139 50.2444 41.6662 50.5531 39.1897C50.8618 36.7131 51.7347 29.7445 52.4905 23.6978C53.2463 17.6512 54.066 11.0685 54.3108 9.06367C54.5663 7.05885 54.7792 5.49358 54.7898 5.57935C54.8005 5.66512 54.8856 6.41559 54.9708 7.2411Z" fill="#797979"/>
</svg>
