<svg width="109" height="107" viewBox="0 0 109 107" fill="none" xmlns="http://www.w3.org/2000/svg">
<path d="M43.6 16.4801C37.6459 25.1731 32.7818 32.3179 32.809 32.3752C32.8227 32.4326 34.444 34.8065 36.3788 37.6392C38.3272 40.4719 39.9213 42.8229 39.9213 42.8459C39.9213 42.8688 36.6513 42.8917 32.6592 42.8917H25.3834L19.9607 34.9786L14.5379 27.0654H7.33028C2.94303 27.0654 0.136277 27.1113 0.163527 27.1686C0.177152 27.2259 4.15565 33.0404 8.99253 40.0705L17.767 52.8692H54.5H91.233L100.021 40.0705C104.844 33.0404 108.823 27.2259 108.837 27.1686C108.864 27.1113 106.071 27.0654 101.683 27.0654H94.4758L89.0394 34.9786L83.6167 42.8917H76.3409C72.3488 42.8917 69.0788 42.8688 69.0788 42.8459C69.0788 42.8229 70.6729 40.4719 72.6213 37.6392C74.556 34.8065 76.1774 32.4326 76.191 32.3752C76.2319 32.272 54.6227 0.688103 54.5 0.688103C54.4592 0.688103 49.5542 7.7985 43.6 16.4801ZM58.1515 27.008C60.1272 29.8866 61.7213 32.3064 61.694 32.3867C61.6395 32.5931 54.5818 42.8917 54.5 42.8917C54.4183 42.8917 47.3605 32.5931 47.306 32.3867C47.2652 32.2376 54.3502 21.7899 54.5 21.7899C54.5409 21.7899 56.1895 24.1409 58.1515 27.008Z" fill="#096B4A"/>
<path d="M8.9789 66.9295C4.15565 73.9596 0.190778 79.7741 0.163528 79.8314C0.136278 79.8887 2.9294 79.9346 7.31665 79.9346H14.5243L19.9607 72.0214L25.3834 64.1083H32.6592C36.6513 64.1083 39.9213 64.1312 39.9213 64.1541C39.9213 64.1771 38.3272 66.5281 36.3788 69.3608C34.444 72.1935 32.8227 74.5674 32.809 74.6248C32.7682 74.728 54.3774 106.312 54.5 106.312C54.6227 106.312 76.2319 74.728 76.191 74.6133C76.1638 74.5559 74.556 72.1935 72.6077 69.3608C70.6729 66.5166 69.0788 64.1771 69.0788 64.1541C69.0788 64.1312 72.3488 64.1083 76.3409 64.1083H83.6167L89.0394 72.0214L94.4758 79.9346H101.683C106.071 79.9346 108.864 79.8887 108.837 79.8314C108.823 79.7741 104.844 73.9596 100.021 66.9295L91.233 54.1308H54.5H17.767L8.9789 66.9295ZM58.1107 69.292C60.059 72.1361 61.6668 74.533 61.694 74.6133C61.7349 74.7624 54.6499 85.2101 54.5 85.2101C54.3638 85.2101 47.2652 74.7624 47.306 74.6133C47.3605 74.4069 54.4183 64.1083 54.5 64.1083C54.5409 64.1083 56.1623 66.4363 58.1107 69.292Z" fill="#096B4A"/>
</svg>
