<svg width="109" height="107" viewBox="0 0 109 107" fill="none" xmlns="http://www.w3.org/2000/svg">
<path d="M50.7758 0.10936C45.889 0.601523 43.1276 1.09369 39.6578 2.09624C23.0171 6.85382 9.71914 19.1032 3.57881 35.3082C-2.61602 51.6407 -0.617691 70.1242 8.91981 84.6521C15.478 94.6595 24.9065 102.188 35.8428 106.107C36.9146 106.508 37.8775 106.818 37.9501 106.818C38.0228 106.818 35.4976 100.62 32.3185 93.0554C29.1393 85.4906 26.2871 78.5457 25.9783 77.616C24.9428 74.4807 24.634 72.3116 24.634 68.4472C24.634 65.5853 24.7066 64.6375 25.0336 62.924C27.3953 51.0574 35.8065 42.1438 47.415 39.209C54.2093 37.4956 61.4215 38.2976 67.798 41.4693C81.2958 48.1956 87.7268 63.963 82.8036 78.2722C82.5856 78.892 79.8243 85.5635 76.6633 93.0918C73.2116 101.313 70.9953 106.818 71.1225 106.818C71.2496 106.818 72.376 106.435 73.6113 105.979C81.968 102.807 89.271 97.7947 95.2296 91.0685L96.8283 89.2457L96.2106 88.6077C95.1025 87.4228 94.7391 86.5114 94.7391 84.7615C94.7391 83.4855 94.8118 83.0663 95.1751 82.3918C96.4831 79.8581 99.19 78.7279 101.806 79.6211L102.86 79.9857L103.822 77.9441C106.22 72.8402 107.946 66.7884 108.673 60.8824C109.018 58.0388 108.964 50.7658 108.582 47.9404C107.201 38.0424 103.804 29.6209 98.1 21.9651C89.3255 10.1896 76.6633 2.67955 61.9846 0.52861C59.6048 0.182273 52.647 -0.072923 50.7758 0.10936Z" fill="black"/>
<path d="M52.1201 46.6826C42.074 47.7399 34.0443 55.815 32.8635 66.0046C32.2458 71.3455 33.8263 77.1968 37.0418 81.4804C38.2226 83.048 40.8568 85.5818 42.3283 86.5479C49.7585 91.4695 59.1688 91.4877 66.5808 86.6026C68.125 85.5818 70.7591 83.0845 71.9581 81.4804C73.0663 80.0039 74.4833 77.2697 75.101 75.4286C79.1703 63.3068 72.158 50.3648 59.8228 47.2295C57.2431 46.5733 54.8088 46.391 52.1201 46.6826Z" fill="#BD0227"/>
</svg>
