<svg width="109" height="107" viewBox="0 0 109 107" fill="none" xmlns="http://www.w3.org/2000/svg">
<path d="M53.8078 5.9946C53.1736 8.74626 52.5745 11.3476 52.4806 11.7754L52.3044 12.55L51.6936 12.6078C49.0274 12.8737 47.4652 13.0819 46.1497 13.3246C27.4625 16.8394 12.71 31.1989 8.91616 49.5471C8.50506 51.5588 8.16444 54.1255 8.08222 56.0331L8 57.6518H18.0307H28.0732L28.2142 56.2297C29.1303 47.0267 34.8504 38.9682 43.3308 34.9333C44.8577 34.2049 47.336 33.2799 47.4535 33.3956C47.4887 33.4302 46.3729 38.448 44.9751 44.5409C43.5774 50.6454 42.3559 56.0216 42.2619 56.4956C42.0387 57.6402 42.0387 60.0103 42.2736 61.1896C43.272 66.3461 47.3477 70.3695 52.5863 71.3522C53.7961 71.5719 56.2392 71.5719 57.449 71.3522C62.1237 70.4736 65.9645 67.1207 67.3857 62.6811C67.8438 61.2474 67.973 60.1838 67.9143 58.3339L67.8556 56.669L65.1893 45.0612C63.7211 38.6792 62.5465 33.4302 62.5818 33.3956C62.711 33.2799 65.2128 34.228 66.8337 35.0026C72.5773 37.7543 77.2403 42.5639 79.7538 48.3447C80.8697 50.9114 81.6684 54.0099 81.868 56.5881L81.9503 57.6518H91.9693H102V56.8656C102 55.9175 101.824 53.9752 101.589 52.2756C100.238 42.7026 95.7748 33.7077 88.9154 26.7014C81.0811 18.7008 70.7685 13.7871 59.6101 12.735C58.6118 12.6425 57.7778 12.5385 57.7543 12.5269C57.7309 12.5038 57.1201 9.90242 56.4036 6.74611C55.6754 3.57823 55.0529 0.999997 55.0176 0.999997C54.9824 0.999997 54.4303 3.25451 53.8078 5.9946Z" fill="#7B171C"/>
<path d="M8.07047 61.5018C8.76346 75.7688 16.633 89.2727 28.9424 97.3543C35.0619 101.366 41.6276 103.759 49.3562 104.788C51.259 105.043 58.2711 105.077 60.1857 104.846C65.4595 104.199 69.9815 102.985 74.4448 100.996C89.0446 94.487 99.3925 80.9137 101.589 65.3402C101.824 63.6407 102 61.6983 102 60.7387V59.9641H91.9693H81.9503L81.868 61.0278C81.7623 62.4614 81.3043 64.8315 80.8579 66.323C78.6732 73.5605 73.329 79.6419 66.3404 82.8676C63.9325 83.9775 60.8082 84.8446 58.0832 85.1684C56.6737 85.3302 53.3615 85.3302 51.999 85.1684C43.1076 84.0931 35.4847 78.9945 31.2445 71.2713C29.6119 68.3116 28.4256 64.3344 28.1672 61.0278L28.085 59.9641H18.0425H8L8.07047 61.5018Z" fill="#7B171C"/>
</svg>
