<svg width="109" height="107" viewBox="0 0 109 107" fill="none" xmlns="http://www.w3.org/2000/svg">
<path d="M13.9319 11.1409C13.7956 11.6132 0 68.9052 0 68.996C0 69.0869 3.40633 69.1141 17.202 69.1141C26.6631 69.1141 34.404 69.0869 34.404 69.0415C34.404 69.0051 34.2933 68.6782 34.1485 68.3149C32.3176 63.5284 32.0025 57.9881 33.2543 52.8747C35.5962 43.3563 42.8772 36.272 52.0317 34.6099C57.039 33.7017 62.4892 34.7007 66.977 37.3437C73.5002 41.1765 77.8007 47.834 78.9162 55.8083C79.1291 57.3342 79.1291 60.9127 78.9162 62.4385C77.7836 70.5673 73.3128 77.3791 66.6619 81.1029C60.1558 84.745 52.6619 84.9448 45.9344 81.6479C41.3359 79.3864 37.3164 75.2175 35.0086 70.3039C34.7191 69.7045 34.4721 69.2049 34.4465 69.2049C34.3784 69.2049 35.0086 70.7126 35.5195 71.7299C40.3225 81.4208 48.1741 88.5233 57.8906 91.9655C60.4709 92.8829 63.6303 93.5822 66.4576 93.8638C68.2374 94.0454 71.9332 94.0454 73.696 93.8638C87.2107 92.4832 98.9114 83.9276 104.949 71.0123C107.129 66.3621 108.407 61.5757 108.875 56.3624C109.02 54.6912 109.045 50.7403 108.918 49.0873C108.006 37.6162 102.786 27.1805 94.3725 19.9963C89.3822 15.7457 83.1401 12.7303 76.9406 11.5859C73.7216 10.9956 76.5744 11.041 43.7544 11.0137C15.354 10.9865 13.9745 10.9865 13.9319 11.1409Z" fill="#931D23"/>
</svg>
