<svg width="109" height="107" viewBox="0 0 109 107" fill="none" xmlns="http://www.w3.org/2000/svg">
<path fill-rule="evenodd" clip-rule="evenodd" d="M54.33 0.262191C54.1602 0.902041 54.0387 1.26516 53.9654 1.35061C53.9215 1.40156 53.797 1.65166 53.6886 1.9064C53.5801 2.16113 53.4245 2.43532 53.3428 2.51568C53.261 2.59627 53.1943 2.70187 53.1943 2.7505C53.1943 2.83294 52.5531 3.73818 52.3488 3.94428C52.2983 3.99523 52.1613 4.17887 52.0444 4.35232C51.9275 4.52577 51.7338 4.75851 51.6139 4.86944C51.494 4.98036 51.1997 5.27424 50.9599 5.52249C50.4501 6.05025 48.7182 7.5261 48.1378 7.92742C47.9168 8.08027 47.5784 8.3225 47.386 8.46584C47.1936 8.60919 46.8399 8.83845 46.6002 8.97531C46.3604 9.11195 46.1059 9.26571 46.0345 9.31666C45.9631 9.36784 45.7282 9.51373 45.5124 9.6411C45.2966 9.76847 44.9135 10.0077 44.6612 10.1728C44.4088 10.3379 44.1426 10.4734 44.0699 10.4739C43.9971 10.4743 43.8848 10.5582 43.8208 10.66C43.7568 10.7619 43.6328 10.8453 43.5453 10.8453C43.4581 10.8453 43.3254 10.9287 43.2505 11.0306C43.1756 11.1325 43.0704 11.2158 43.0164 11.2158C42.9197 11.2158 41.6238 12.066 41.096 12.4756C40.484 12.9506 38.4128 14.7351 38.2395 14.9364C38.1371 15.0554 37.936 15.2777 37.7924 15.4306C37.179 16.0838 36.0904 17.7767 36.085 18.0861C36.0836 18.1708 36.0351 18.2542 35.9776 18.2713C35.9199 18.2882 35.7948 18.5731 35.6994 18.9042C35.6043 19.2354 35.4806 19.5897 35.4248 19.6916C35.2705 19.9737 35.1098 20.965 35.0302 22.1266C34.991 22.7016 34.9171 23.1937 34.8664 23.2204C34.8158 23.247 34.7743 23.5344 34.7743 23.8588V24.4489L33.9296 24.0867C33.465 23.8873 33.0345 23.6889 32.9727 23.6456C32.9111 23.6022 32.6168 23.489 32.3187 23.3938C32.0209 23.2989 31.7525 23.1942 31.7225 23.1611C31.6925 23.1282 31.3737 23.0254 31.014 22.9328C30.6544 22.8401 30.311 22.7343 30.2511 22.6977C30.1026 22.6072 28.6377 22.3316 28.3039 22.3316C28.156 22.3316 28.0145 22.2795 27.9895 22.2158C27.9273 22.0574 23.809 22.0507 23.4284 22.2084C23.2842 22.2679 22.7022 22.3851 22.1343 22.4687C21.5667 22.5523 21.0517 22.6537 20.9899 22.6942C20.9283 22.7348 20.6487 22.8153 20.3686 22.8735C20.0888 22.9314 19.7209 23.027 19.5512 23.0858C19.3817 23.1444 18.9484 23.2855 18.5888 23.3987C17.041 23.8866 16.6236 24.03 16.5724 24.0916C16.5424 24.1275 16.2604 24.2289 15.9457 24.3169C15.6309 24.4049 15.3734 24.5107 15.3734 24.5522C15.3734 24.5934 15.247 24.6543 15.0922 24.6872C14.8018 24.7493 13.6464 25.1763 12.9756 25.4697C12.7658 25.5614 12.3611 25.6902 12.0764 25.7559C11.7916 25.8219 11.5587 25.9037 11.5587 25.9377C11.5587 25.9718 11.1908 26.0776 10.7412 26.1728C10.2916 26.2679 9.92375 26.3724 9.92375 26.4053C9.92375 26.4379 9.47007 26.5387 8.91556 26.6294C8.36105 26.72 7.80927 26.8302 7.68938 26.8744C6.65666 27.2556 1.586 27.2181 0.694433 26.8228C-0.150269 26.4483 -0.186782 26.7408 0.614322 27.4631C0.947571 27.7635 1.30126 28.1178 1.40044 28.2505C1.49935 28.3829 1.64295 28.5249 1.71925 28.5657C1.79581 28.6064 1.85821 28.6796 1.85821 28.7285C1.85821 28.7773 2.00536 28.9899 2.1852 29.2009C2.36503 29.4121 2.51218 29.6379 2.51218 29.7029C2.51218 29.7682 2.57567 29.8766 2.65305 29.9438C2.73044 30.0112 2.86123 30.2122 2.94352 30.3905C3.02581 30.5688 3.15224 30.7772 3.22445 30.8537C3.29693 30.9301 3.44244 31.2219 3.54816 31.5021C3.65361 31.7823 3.77787 32.0532 3.82419 32.1042C3.87051 32.1551 3.98986 32.4469 4.08904 32.7526C4.18823 33.0583 4.3133 33.3917 4.36643 33.4936C4.41984 33.5955 4.54191 34.0332 4.63756 34.4663C4.7332 34.8993 4.85636 35.337 4.91058 35.4389C5.02585 35.6543 5.1937 36.8747 5.29915 38.2641C5.33975 38.7991 5.40923 39.2785 5.45365 39.3294C5.49806 39.3804 5.56645 39.7972 5.60596 40.2557C5.70024 41.355 5.91469 42.745 5.99889 42.8031C6.03595 42.8286 6.14957 43.2567 6.25175 43.7546C6.35366 44.2528 6.48445 44.7321 6.54222 44.8199C6.59972 44.9079 6.72397 45.2509 6.81825 45.582C6.91226 45.9132 7.03651 46.198 7.09427 46.2149C7.15177 46.2321 7.19891 46.318 7.19891 46.4062C7.19891 46.4944 7.4357 46.9599 7.72535 47.4407C8.54008 48.7933 8.54961 48.8063 9.13355 49.3465C9.26843 49.4714 9.37878 49.6062 9.37878 49.6457C9.37878 49.7449 11.0758 51.1612 11.6132 51.5104C12.3756 52.006 12.6679 52.2024 12.8015 52.3089C12.8731 52.3661 13.0914 52.4828 13.2865 52.5685C13.4816 52.6544 13.7366 52.8056 13.8533 52.9047C13.9701 53.0041 14.1124 53.0851 14.1696 53.0851C14.2268 53.0851 14.4462 53.1845 14.6571 53.3061L15.0402 53.5272L14.6347 53.7526C14.4116 53.8767 14.1432 54.0052 14.0383 54.0381C13.9334 54.0712 13.8475 54.1414 13.8475 54.1937C13.8475 54.2463 13.7862 54.29 13.7113 54.2912C13.6364 54.2921 13.2173 54.5214 12.7799 54.8007C12.3423 55.0797 11.954 55.3083 11.917 55.3083C11.7816 55.3083 9.6826 57.062 9.26979 57.5201C9.11992 57.6864 8.91338 57.901 8.8112 57.9971C8.70875 58.0935 8.524 58.3302 8.40056 58.5233C8.27713 58.7167 8.0071 59.1361 7.80028 59.4554C7.59347 59.775 7.36594 60.2022 7.29428 60.4049C7.22289 60.6077 7.12834 60.7735 7.08447 60.7735C7.04032 60.7735 6.91879 61.0757 6.81416 61.4451C6.7098 61.8145 6.58473 62.1598 6.5365 62.2121C6.48827 62.2647 6.36865 62.7024 6.27028 63.1847C6.17191 63.6673 6.04766 64.1453 5.99398 64.2472C5.88281 64.4584 5.56427 66.7357 5.564 67.3216C5.564 67.5352 5.51495 67.7357 5.45501 67.7672C5.39506 67.7987 5.34601 68.0092 5.34601 68.235C5.34601 68.8802 5.00868 71.4667 4.91767 71.5185C4.87271 71.544 4.7738 71.896 4.69832 72.3003C4.62257 72.7047 4.44872 73.3299 4.31166 73.6898C4.17488 74.0497 4.02882 74.4795 3.98741 74.6451C3.94572 74.8106 3.87896 74.9461 3.83863 74.9461C3.79858 74.9461 3.66942 75.2171 3.5517 75.5482C3.43399 75.8794 3.30429 76.1503 3.26287 76.1503C3.22173 76.1503 3.09993 76.3587 2.99202 76.6135C2.88439 76.8682 2.7615 77.0766 2.71954 77.0766C2.6773 77.0766 2.55196 77.264 2.44133 77.4932C2.33043 77.7223 2.20427 77.9098 2.16067 77.9101C2.11735 77.9101 2.00454 78.0372 1.90999 78.1926C1.69254 78.5502 1.52606 78.7252 0.688983 79.4774C0.0197614 80.0786 -0.197954 80.475 0.196059 80.3757C0.300965 80.3493 0.533939 80.299 0.713779 80.2641C0.893619 80.2291 1.09335 80.1657 1.15793 80.1228C1.60508 79.8262 6.74195 79.8333 7.39946 80.1318C7.49891 80.177 8.0586 80.2856 8.64308 80.3734C9.22756 80.4611 9.70576 80.5616 9.70576 80.5964C9.70576 80.6314 9.98779 80.7126 10.3325 80.7772C10.6772 80.8419 11.1554 80.9683 11.3952 81.0582C11.635 81.1482 12.0273 81.2747 12.2671 81.3395C12.5069 81.4041 12.7276 81.4866 12.7576 81.5227C12.7876 81.5588 13.0696 81.6603 13.3843 81.7483C13.699 81.8363 13.9565 81.94 13.9565 81.9789C13.9565 82.0176 14.1497 82.0986 14.3862 82.1588C14.6225 82.2191 15.0933 82.3923 15.4326 82.544C15.7718 82.6956 16.1427 82.8198 16.2566 82.8198C16.3702 82.8198 16.4634 82.8582 16.4634 82.905C16.4634 82.9518 16.7209 83.0615 17.0356 83.1488C17.3503 83.2361 17.6569 83.339 17.7168 83.3774C17.7768 83.4158 18.1201 83.524 18.4798 83.6173C18.8394 83.7109 19.1585 83.816 19.1888 83.8512C19.219 83.8862 19.5869 83.9909 20.0062 84.0839C20.4256 84.1768 20.7932 84.2792 20.8231 84.3116C20.8531 84.3438 21.3436 84.4422 21.9131 84.53C22.4826 84.6177 23.0662 84.7377 23.2104 84.7967C23.569 84.9436 27.9933 84.9445 28.3546 84.7977C28.4985 84.7393 28.9105 84.6411 29.2701 84.5798C29.6298 84.5184 30.0713 84.4137 30.2511 84.3468C30.4309 84.2801 30.8478 84.1532 31.1775 84.0647C31.5072 83.9763 31.8015 83.8771 31.8315 83.8443C31.8615 83.8114 32.101 83.7257 32.3637 83.6539C32.6263 83.5819 32.8961 83.4765 32.9631 83.4196C33.0302 83.3626 33.3179 83.2403 33.6026 83.1479C33.8874 83.0555 34.1204 82.9488 34.1204 82.9105C34.1204 82.8726 34.2062 82.8156 34.3111 82.7841C34.416 82.7528 34.5632 82.7028 34.6381 82.6729C34.7403 82.6327 34.7743 82.7823 34.7743 83.2697C34.7743 83.6275 34.816 83.9422 34.8667 83.9689C34.9174 83.9955 34.988 84.4461 35.0237 84.9702C35.092 85.9796 35.31 87.2811 35.4237 87.3587C35.4613 87.3842 35.5798 87.7281 35.6874 88.1229C35.7948 88.5177 35.9199 88.8408 35.9654 88.8408C36.0106 88.8408 36.1092 89.0152 36.1844 89.2285C36.3062 89.5737 36.9019 90.5735 37.0577 90.6934C37.0907 90.7189 37.2133 90.8856 37.3302 91.0639C37.4471 91.2423 37.5798 91.4298 37.6251 91.4808C37.8951 91.7846 38.3834 92.2614 38.8343 92.6621C39.1191 92.915 39.3521 93.1576 39.3521 93.2012C39.3521 93.2449 39.4398 93.3204 39.5472 93.3693C39.6545 93.4182 40.0927 93.7426 40.5208 94.0904C40.9488 94.4383 41.4502 94.8271 41.6349 94.9545C41.8194 95.0818 42.1115 95.2902 42.2837 95.4176C42.4559 95.545 42.9502 95.8576 43.3824 96.1123C43.8145 96.3671 44.2549 96.6427 44.3609 96.7249C44.4669 96.8068 44.7197 96.9527 44.923 97.0491C45.126 97.1452 45.3563 97.2969 45.4347 97.386C45.5129 97.4752 45.6315 97.5481 45.698 97.5481C45.7644 97.5481 45.8966 97.6109 45.9914 97.6878C46.0865 97.7644 46.4339 97.993 46.7636 98.1952C47.4544 98.6192 47.7449 98.8227 48.4838 99.4008C48.777 99.63 49.2089 99.966 49.4435 100.147C49.8253 100.442 50.4907 101.058 51.2891 101.855C51.5449 102.111 52.2261 102.92 52.4858 103.277C52.5458 103.36 52.7229 103.595 52.8796 103.799C53.0362 104.004 53.1989 104.265 53.2411 104.38C53.2834 104.494 53.3559 104.588 53.4025 104.588C53.4488 104.588 53.5477 104.765 53.6223 104.982C53.697 105.198 53.8292 105.47 53.9158 105.585C54.0025 105.701 54.1354 106.055 54.2109 106.372C54.4036 107.181 54.6594 107.211 54.8365 106.447C54.9079 106.138 55.0038 105.885 55.0496 105.885C55.0951 105.885 55.1646 105.77 55.2038 105.63C55.2949 105.305 56.0401 103.996 56.1575 103.955C56.2063 103.938 56.2461 103.884 56.2461 103.834C56.2461 103.642 57.539 102.081 58.3846 101.253C58.672 100.972 60.5135 99.4392 60.8538 99.1981C61.2252 98.9351 62.022 98.392 62.429 98.1245C63.0389 97.7234 63.2075 97.6204 63.8212 97.2744C64.5285 96.8756 64.861 96.6665 65.1904 96.4134C65.3065 96.3242 65.4313 96.2513 65.4678 96.2513C65.504 96.2513 65.7861 96.0832 66.0945 95.8778C66.4027 95.6723 66.797 95.4118 66.9705 95.2988C67.1441 95.1858 67.4812 94.9371 67.7196 94.746C67.9578 94.555 68.1864 94.3987 68.2272 94.3987C68.3362 94.3987 70.5273 92.519 70.6641 92.3082C70.7278 92.2098 70.8695 92.0748 70.9791 92.0081C71.0886 91.9416 71.1783 91.8291 71.1783 91.758C71.1783 91.6871 71.2398 91.5957 71.3148 91.5549C71.4932 91.4581 72.2161 90.5158 72.3151 90.2511C72.3573 90.1376 72.4298 90.045 72.4758 90.045C72.5219 90.045 72.6516 89.8157 72.7636 89.5355C72.8756 89.2553 73.0009 89.0261 73.042 89.0261C73.0829 89.0261 73.2031 88.7238 73.3085 88.3545C73.414 87.9851 73.5366 87.6621 73.5813 87.6366C73.6799 87.5801 74.0121 85.8439 74.0121 85.3847C74.0121 85.2027 74.0611 85.0281 74.1211 84.9966C74.1843 84.9635 74.2301 84.4554 74.2301 83.7868C74.2301 83.153 74.2472 82.6345 74.2682 82.6345C74.411 82.6345 74.993 82.8503 74.993 82.9031C74.993 82.939 75.2383 83.0435 75.538 83.1349C75.8377 83.2266 76.083 83.339 76.083 83.3848C76.083 83.4307 76.1342 83.4682 76.1969 83.4682C76.2598 83.4682 76.6704 83.6113 77.11 83.7861C77.5492 83.9608 78.0866 84.1321 78.3037 84.1669C78.5212 84.2016 78.6988 84.259 78.6988 84.2947C78.6988 84.3681 79.4918 84.5471 80.2247 84.639C80.4945 84.6729 80.7501 84.7463 80.7929 84.8023C80.901 84.9436 85.8695 84.9443 85.9782 84.803C86.021 84.7474 86.4483 84.6497 86.9279 84.5858C87.4074 84.5219 87.9469 84.4133 88.1268 84.3442C88.3066 84.2752 88.7726 84.1504 89.1622 84.0668C89.5519 83.9832 89.9197 83.8822 89.9797 83.8426C90.0396 83.803 90.3584 83.6963 90.6881 83.6057C91.0178 83.515 91.3121 83.4156 91.3421 83.3846C91.3721 83.3536 91.5928 83.2711 91.8326 83.2016C92.2691 83.0745 92.9914 82.8098 94.0124 82.4025C94.3122 82.283 94.8027 82.0947 95.1024 81.9845C95.4021 81.874 95.8926 81.6883 96.1923 81.5718C96.4921 81.4551 96.8599 81.3291 97.0098 81.2914C97.1596 81.2538 97.4785 81.1492 97.7182 81.0588C97.958 80.9688 98.4362 80.8419 98.7809 80.7772C99.1256 80.7126 99.4076 80.6316 99.4076 80.5973C99.4076 80.563 99.9104 80.4577 100.525 80.3632C101.139 80.2687 101.667 80.1612 101.697 80.1242C101.931 79.8382 107.768 79.8324 108.016 80.1179C108.047 80.1536 108.281 80.2286 108.536 80.2842C109.292 80.4498 109.166 80.2184 107.845 79.0142C107.7 78.8825 107.582 78.7282 107.582 78.6715C107.582 78.6145 107.521 78.5347 107.446 78.4939C107.371 78.4531 107.215 78.2739 107.1 78.0956C106.985 77.9173 106.855 77.7505 106.812 77.7251C106.77 77.6996 106.658 77.5224 106.564 77.3314C106.471 77.1403 106.343 76.984 106.28 76.984C106.217 76.984 106.165 76.9111 106.164 76.8219C106.163 76.7327 106.024 76.428 105.855 76.1445C105.686 75.8611 105.48 75.4338 105.397 75.1951C105.313 74.9563 105.217 74.7608 105.182 74.7608C105.148 74.7608 105.026 74.4378 104.912 74.043C104.798 73.6481 104.67 73.3042 104.628 73.2788C104.586 73.2533 104.462 72.7739 104.353 72.2135C104.244 71.6531 104.121 71.1735 104.079 71.1478C104.038 71.1218 103.916 70.1839 103.808 69.0636C103.7 67.943 103.573 67.0122 103.526 66.9953C103.479 66.9782 103.44 66.8034 103.44 66.6063C103.44 66.0871 103.128 64.0941 103.013 63.8767C102.959 63.7748 102.832 63.3163 102.731 62.8577C102.63 62.3992 102.511 61.9824 102.466 61.9314C102.421 61.8805 102.298 61.5678 102.191 61.2367C102.085 60.9055 101.965 60.6137 101.923 60.5883C101.882 60.5628 101.758 60.3335 101.646 60.0788C101.535 59.8241 101.41 59.5948 101.368 59.5693C101.326 59.5439 101.185 59.3354 101.056 59.1062C100.34 57.8422 99.1095 56.6484 97.1733 55.3407C96.6937 55.0167 96.2523 54.7185 96.1923 54.6779C96.1324 54.6374 95.913 54.523 95.7051 54.4237C95.4972 54.3243 95.2304 54.1701 95.1125 54.0809C94.9942 53.9918 94.8457 53.9174 94.7822 53.9156C94.4656 53.9063 94.0296 53.4781 94.2708 53.4133C94.3986 53.3788 94.5029 53.3144 94.5029 53.2704C94.5029 53.2264 94.6122 53.1609 94.7457 53.1247C95.0593 53.0402 96.2561 52.3608 96.7733 51.9736C96.8754 51.8971 97.082 51.7668 97.2324 51.6839C97.9929 51.2652 99.9905 49.5307 100.124 49.1736C100.158 49.0832 100.23 49.0094 100.284 49.0094C100.338 49.0094 100.465 48.8739 100.565 48.7083C100.664 48.5427 100.776 48.3864 100.814 48.361C100.851 48.3355 100.979 48.1479 101.098 47.9441C101.217 47.7403 101.346 47.5527 101.384 47.5273C101.422 47.5018 101.528 47.2934 101.62 47.0641C101.712 46.8349 101.864 46.5225 101.958 46.3698C102.052 46.2175 102.186 45.8736 102.257 45.6056C102.328 45.3379 102.42 45.1189 102.463 45.1189C102.506 45.1189 102.625 44.7333 102.727 44.262C102.829 43.7908 102.956 43.3218 103.009 43.2199C103.111 43.0222 103.44 40.9296 103.44 40.4776C103.44 40.3287 103.486 40.1346 103.542 40.0461C103.597 39.9577 103.722 39.0115 103.819 37.9436C103.917 36.8758 104.036 35.9588 104.085 35.9058C104.133 35.8527 104.26 35.3405 104.366 34.7673C104.473 34.1942 104.594 33.7252 104.637 33.7252C104.679 33.7252 104.776 33.4855 104.852 33.1926C104.928 32.8996 105.078 32.4932 105.185 32.2894C105.292 32.0856 105.442 31.7418 105.517 31.5252C105.593 31.3087 105.696 31.1315 105.746 31.1315C105.797 31.1315 105.84 31.0794 105.841 31.0158C105.848 30.7305 107.023 28.9466 107.5 28.4973C107.605 28.3985 107.691 28.288 107.691 28.2514C107.691 28.2151 107.984 27.9207 108.342 27.5974C109.169 26.8497 109.047 26.2976 108.182 26.8717C107.65 27.2244 102.364 27.2255 101.424 26.8733C101.304 26.8281 100.863 26.7418 100.443 26.6808C100.023 26.6202 99.533 26.515 99.3531 26.4474C99.1733 26.3796 98.7104 26.2564 98.3242 26.1735C97.9381 26.0906 97.5226 25.9632 97.4008 25.8907C97.279 25.8182 97.109 25.7589 97.0234 25.7589C96.9376 25.7589 96.6174 25.6601 96.3119 25.5394C96.0062 25.4185 95.3394 25.1619 94.8299 24.969C94.3204 24.7763 93.8054 24.5668 93.6855 24.5036C93.5656 24.4403 93.3449 24.3584 93.195 24.3213C93.0451 24.2842 92.6181 24.1342 92.2459 23.9876C91.8737 23.841 91.4936 23.721 91.4012 23.721C91.3089 23.721 91.2331 23.687 91.2331 23.6453C91.2331 23.6036 90.9511 23.4966 90.6064 23.4073C90.2617 23.3179 89.8325 23.1884 89.6527 23.1194C89.4729 23.0504 89.0805 22.9448 88.7807 22.8851C88.481 22.8253 88.0886 22.7213 87.9088 22.6542C87.729 22.587 87.1649 22.48 86.6554 22.4166C86.1458 22.3531 85.6755 22.267 85.6104 22.2248C85.4131 22.0979 82.7319 22.0294 81.9141 22.1303C80.7482 22.2744 78.871 22.616 78.8086 22.6954C78.7784 22.7343 78.6062 22.7959 78.4263 22.8323C78.2465 22.8686 77.8786 22.9837 77.6089 23.0881C77.3391 23.1924 76.8732 23.373 76.5734 23.4895C76.2737 23.606 75.8323 23.7764 75.5925 23.8683C75.3527 23.9603 75.132 24.0642 75.102 24.0994C75.0721 24.1346 74.8636 24.2284 74.6388 24.3081L74.2301 24.4526V23.3049C74.2301 22.6398 74.1843 22.1331 74.1211 22.1C74.0611 22.0685 74.0121 21.899 74.0121 21.7235C74.0121 21.2617 73.6949 19.5367 73.5886 19.42C73.5391 19.3655 73.4391 19.1126 73.3666 18.8579C73.0197 17.641 71.6513 15.5991 70.5548 14.6619C70.3581 14.4938 70.1973 14.3266 70.1973 14.2905C70.1973 14.2303 69.5202 13.6625 68.2155 12.6285C67.9422 12.4119 67.6689 12.2348 67.6082 12.2348C67.5474 12.2348 67.4171 12.1306 67.3191 12.0032C67.2207 11.8758 67.0858 11.7716 67.0193 11.7716C66.9526 11.7716 66.7877 11.6778 66.6531 11.5632C66.5185 11.4486 66.1697 11.2091 65.8779 11.0313C65.5858 10.8532 65.3226 10.6818 65.2926 10.6503C65.2626 10.6191 65.0787 10.5239 64.8839 10.4391C64.689 10.3541 64.5296 10.2536 64.5296 10.2156C64.5296 10.1774 64.3457 10.0642 64.1209 9.96369C63.8961 9.86319 63.6481 9.7078 63.5697 9.61841C63.4915 9.52902 63.3729 9.45584 63.3064 9.45584C63.24 9.45584 63.1078 9.39216 63.013 9.31435C62.8667 9.19439 62.3566 8.86439 61.7285 8.48321C60.7195 7.87092 58.1235 5.60192 57.2243 4.54639C56.9856 4.26618 56.7461 3.9906 56.6919 3.93409C56.6377 3.87759 56.4897 3.66917 56.3633 3.47094C56.2371 3.27271 55.9714 2.8605 55.7736 2.55481C55.5755 2.24913 55.345 1.80103 55.2611 1.55903C55.1771 1.31703 55.0766 1.11903 55.0376 1.11903C54.9984 1.11903 54.9087 0.868926 54.8379 0.563243C54.6981 -0.040018 54.4491 -0.187765 54.33 0.262191ZM56.6529 13.4934C61.6154 14.1073 65.9539 18.1479 66.9888 23.1189C67.2526 24.3864 67.1092 27.4972 66.7111 29.14C66.2839 30.9041 65.846 32.2183 65.4152 33.0305C64.9029 33.9964 64.7343 34.3801 64.531 35.0436C64.0885 36.4886 64.3471 37.4497 65.2926 37.8735C66.4907 38.4107 67.9234 37.6519 69.8899 35.4389C72.2006 32.8383 76.683 29.9093 79.5708 29.1129C89.4513 26.3881 98.349 31.8909 96.9526 39.8627C96.1703 44.3278 92.3121 48.0629 86.5464 49.9368C84.0807 50.7383 82.5128 51.0984 80.7081 51.2777C77.2566 51.6209 75.62 52.4627 75.9056 53.7477C76.1465 54.8308 77.556 55.4563 80.3719 55.7295C81.1602 55.806 81.8787 55.8926 81.9686 55.9222C82.0586 55.9516 82.5684 56.0547 83.1016 56.1512C83.6352 56.248 84.1256 56.3615 84.1916 56.4034C84.2578 56.4456 84.5327 56.5322 84.8025 56.5959C87.4306 57.216 90.8192 58.7704 92.4593 60.1082C98.2226 64.8083 98.6384 71.6647 93.4171 75.9039C92.2814 76.8263 91.5688 77.2239 89.9252 77.8526C86.6298 79.1134 81.0182 78.8531 77.7778 77.2892C76.7037 76.7709 76.7228 76.7809 76.0789 76.4044C75.7514 76.2128 75.3609 75.9847 75.211 75.8972C73.4036 74.8419 70.9927 72.8939 69.7913 71.5188C67.576 68.983 65.5517 68.3204 64.561 69.8069C64.167 70.3979 64.4201 72.5294 64.9566 73.1398C65.0013 73.1907 65.1027 73.3783 65.1817 73.5566C65.2607 73.735 65.3907 74.0059 65.4705 74.1588C65.7558 74.7053 66.0716 75.5637 66.3395 76.5208C68.0798 82.7415 66.9648 87.2246 62.789 90.7946C60.4187 92.8212 57.8134 93.7491 54.4916 93.75C46.2121 93.7519 40.3763 86.3886 42.305 78.3735C42.36 78.1442 42.4813 77.6072 42.5742 77.1801C42.6671 76.7531 42.8093 76.2321 42.8903 76.0223C42.9709 75.8124 43.12 75.3907 43.2213 75.0851C43.3224 74.7794 43.4415 74.4876 43.4854 74.4366C43.5293 74.3857 43.6543 74.1356 43.7628 73.8809C43.8715 73.6261 43.9963 73.376 44.0402 73.3251C44.6925 72.5671 44.9696 70.2437 44.4748 69.68C43.3282 68.3744 41.4905 69.0291 39.3142 71.5188C38.1134 72.8925 35.6896 74.8535 33.9024 75.8972C31.3639 77.3793 30.3911 77.8043 28.6227 78.2033C15.719 81.1147 7.04169 70.3454 15.171 61.5081C16.0239 60.5811 17.3688 59.4718 18.219 58.9941C20.113 57.93 24.0741 56.4991 26.1093 56.1441C26.469 56.0813 26.8859 55.9931 27.0358 55.9481C27.1856 55.9032 27.9581 55.8029 28.7522 55.7254C35.0027 55.1152 34.7313 51.707 28.3982 51.2807C24.8728 51.0433 19.0234 48.8998 16.732 47.0058C10.9042 42.1887 10.4039 35.6242 15.5326 31.267C16.9664 30.0487 19.207 28.9908 20.8231 28.769C21.0929 28.7319 21.3956 28.665 21.4962 28.6203C21.5964 28.5754 22.2836 28.4929 23.0229 28.4371C26.2085 28.1958 29.5862 28.8123 31.9405 30.0644C35.2858 31.8434 37.4084 33.4383 39.5275 35.7652C41.3927 37.813 42.8006 38.4608 43.9513 37.8005C45.0609 37.1639 45.0568 35.6432 43.9393 33.4936C43.2502 32.1679 42.8483 31.1012 42.5606 29.8347C42.4622 29.4017 42.341 28.8785 42.2911 28.6722C41.8548 26.8652 41.9257 22.5539 42.4009 22.0074C42.4453 21.9564 42.5412 21.7063 42.6143 21.4516C42.7557 20.9586 42.8587 20.742 43.4731 19.6453C45.3895 16.2242 48.7479 13.939 52.518 13.4906C53.1597 13.4144 53.8074 13.3334 53.9572 13.3109C54.3126 13.2572 55.2671 13.3218 56.6529 13.4934ZM53.8815 22.8908C51.2024 23.2113 49.773 25.5677 49.9784 29.3252C50.0512 30.654 50.1128 31.1156 50.4117 32.5673C50.5752 33.3619 50.6607 33.6951 51.2787 35.9484C52.5896 40.7281 51.5624 43.5249 47.971 44.9519C44.8206 46.2038 41.9118 45.3099 37.4992 41.7339C31.2903 36.7022 26.8576 35.2729 24.006 37.3837C21.8719 38.9633 22.5804 42.0766 25.4417 43.6914C25.614 43.7887 25.9573 43.9811 26.2047 44.1189C27.0012 44.5628 30.1819 45.8537 30.8506 46.0044C31.0004 46.0382 31.2702 46.1193 31.45 46.1848C31.6299 46.2501 32.292 46.4386 32.9214 46.6035C37.2929 47.7487 38.1376 48.031 39.4875 48.7982C43.899 51.3055 43.4827 56.5614 38.7052 58.6771C37.5588 59.1847 36.4545 59.5283 33.4664 60.3067C32.837 60.4706 32.1503 60.661 31.9405 60.7293C31.7307 60.7979 31.2961 60.9241 30.9745 61.01C30.653 61.0957 30.2606 61.2233 30.1026 61.2934C29.9445 61.3634 29.7778 61.421 29.7323 61.4215C29.589 61.4224 27.3388 62.3624 26.6543 62.7072C23.2812 64.4063 21.9768 66.5919 23.115 68.6375C24.384 70.9178 28.1323 71.2295 31.5318 69.3378C31.7566 69.2127 32.1489 68.9983 32.4037 68.8612C33.7819 68.1201 35.2765 67.0963 37.1722 65.5945C37.8616 65.0485 38.6463 64.4385 38.9161 64.2391C39.1859 64.0397 39.4311 63.8549 39.4611 63.8281C39.491 63.8014 39.8344 63.5694 40.224 63.3123C41.2581 62.6303 41.5513 62.4844 43.0066 61.9291C45.8511 60.8437 49.8738 62.2806 51.2659 64.8794C51.9635 66.182 52.0084 69.4255 51.3493 70.8988C51.2986 71.0123 51.1754 71.4586 51.0754 71.8909C50.9754 72.323 50.8468 72.7809 50.7893 72.9082C50.7318 73.0356 50.5852 73.64 50.4632 74.2514C50.3414 74.8627 50.1896 75.6131 50.1264 75.9187C49.8651 77.1776 49.9553 80.0918 50.285 81.0389C51.7411 85.2238 56.9946 85.4037 58.7178 81.3279C59.2968 79.9588 59.1906 76.396 58.4889 73.6493C58.3391 73.0634 58.0935 72.0921 57.9431 71.4912C57.7925 70.89 57.6412 70.3595 57.6069 70.3122C57.3115 69.906 57.1636 67.1792 57.3807 66.1445C58.0985 62.7264 62.7059 60.6121 66.3501 62.0287C66.6711 62.1535 66.9566 62.2556 66.9842 62.2556C67.367 62.2556 69.7883 63.8906 71.9412 65.6029C78.125 70.5211 82.6929 71.8451 85.2859 69.4702C86.1684 68.6618 86.2739 68.4158 86.2739 67.1651C86.2739 64.222 82.8684 62.1322 74.7206 60.0756C73.923 59.8743 73.1001 59.6372 71.8529 59.2493C69.7491 58.5951 67.7684 57.2056 67.1847 55.9743C67.0959 55.7863 66.943 55.4866 66.8452 55.3083C66.6158 54.8891 66.5242 52.9457 66.7011 52.245C67.2599 50.0297 69.5668 48.3299 73.3036 47.3795C73.6034 47.3033 73.9467 47.2035 74.0666 47.1577C74.1865 47.1116 74.6524 46.9845 75.102 46.8747C76.9364 46.4273 77.3519 46.3159 77.6797 46.1837C77.8688 46.1075 78.0539 46.0452 78.0909 46.0452C78.5468 46.0452 81.903 44.6638 83.2221 43.9334C86.4317 42.1561 87.3134 39.3002 85.2101 37.4946C82.5798 35.2367 78.0345 36.5947 71.9412 41.459C68.4493 44.2467 66.9479 45.0702 64.7879 45.3829C62.1138 45.7701 58.878 44.3373 57.9148 42.3399C57.8287 42.1616 57.6914 41.8904 57.6093 41.7376C57.3567 41.2659 57.1927 39.8688 57.2726 38.8663C57.3513 37.877 57.4728 37.267 57.9276 35.5778C58.0854 34.992 58.3396 33.9915 58.4927 33.3547C58.6461 32.7179 58.8164 32.0092 58.8718 31.78C59.1756 30.5167 59.0917 26.1779 58.7562 25.8053C58.7105 25.7543 58.5925 25.5042 58.4944 25.2495C57.8848 23.6657 55.8973 22.6495 53.8815 22.8908ZM56.5112 46.8946C57.1091 47.0018 58.9113 47.7079 59.253 47.9687C59.3688 48.0571 59.6584 48.2723 59.8968 48.4469C66.0016 52.9175 60.835 61.6693 52.948 60.2177C44.0156 58.5738 44.6037 47.8244 53.6847 46.7487C54.164 46.6917 55.8731 46.78 56.5112 46.8946Z" fill="#94249C"/>
<path fill-rule="evenodd" clip-rule="evenodd" d="M54.1455 13.4133C54.339 13.4337 54.6823 13.4341 54.9085 13.414C55.1346 13.3938 54.9763 13.3772 54.5567 13.3767C54.1371 13.3762 53.9521 13.3927 54.1455 13.4133ZM60.7149 14.8623C60.7149 14.8877 60.862 14.9975 61.0418 15.1063C61.2217 15.2152 61.3688 15.2833 61.3688 15.2578C61.3688 15.2323 61.2217 15.1226 61.0418 15.0137C60.862 14.9049 60.7149 14.8368 60.7149 14.8623ZM46.2702 16.3337L45.5102 17.0053L46.3004 16.3594C46.735 16.0042 47.0906 15.702 47.0906 15.6878C47.0906 15.6198 46.9762 15.7098 46.2702 16.3337ZM62.7312 16.3106C63.0871 16.6162 63.4029 16.8663 63.4329 16.8663C63.4629 16.8663 63.1961 16.6162 62.8402 16.3106C62.4844 16.0049 62.1686 15.7548 62.1386 15.7548C62.1086 15.7548 62.3754 16.0049 62.7312 16.3106ZM42.0088 24.8789C42.0091 25.4394 42.0268 25.6566 42.0486 25.3618C42.0704 25.067 42.0701 24.6085 42.048 24.3428C42.0262 24.0772 42.0085 24.3185 42.0088 24.8789ZM67.0662 24.6474C67.0662 24.8766 67.0874 24.9704 67.1133 24.8558C67.1395 24.7412 67.1395 24.5536 67.1133 24.4389C67.0874 24.3243 67.0662 24.4181 67.0662 24.6474ZM66.955 26.6389C66.9561 26.8427 66.9785 26.9152 67.0046 26.7999C67.0308 26.6848 67.0297 26.5181 67.0024 26.4294C66.9752 26.3409 66.9537 26.4351 66.955 26.6389ZM42.1066 26.7779C42.1066 27.0071 42.1279 27.1009 42.1538 26.9863C42.1799 26.8717 42.1799 26.6841 42.1538 26.5695C42.1279 26.4548 42.1066 26.5486 42.1066 26.7779ZM59.1075 27.0095C59.1086 27.2132 59.1309 27.2857 59.1571 27.1704C59.1832 27.0553 59.1821 26.8886 59.1549 26.7999C59.1276 26.7114 59.1061 26.8057 59.1075 27.0095ZM49.8594 28.6305C49.8594 29.4202 49.876 29.7432 49.8964 29.3484C49.9168 28.9536 49.9168 28.3075 49.8964 27.9126C49.876 27.5178 49.8594 27.8408 49.8594 28.6305ZM42.2134 27.6579C42.2145 27.8617 42.2369 27.9342 42.263 27.8188C42.2892 27.7037 42.2881 27.537 42.2609 27.4483C42.2336 27.3598 42.2121 27.4541 42.2134 27.6579ZM59.2309 28.5379C59.2309 29.1747 59.2483 29.4352 59.2696 29.1168C59.2909 28.7984 59.2909 28.2773 59.2696 27.9589C59.2483 27.6405 59.2309 27.901 59.2309 28.5379ZM23.6297 28.514C24.0643 28.5316 24.7755 28.5316 25.2101 28.514C25.6448 28.4964 25.2892 28.4821 24.4199 28.4821C23.5507 28.4821 23.1951 28.4964 23.6297 28.514ZM83.9033 28.514C84.3379 28.5316 85.0491 28.5316 85.4837 28.514C85.9183 28.4964 85.5627 28.4821 84.6935 28.4821C83.8243 28.4821 83.4687 28.4964 83.9033 28.514ZM20.3327 28.9084C20.1953 28.9587 20.1752 28.9881 20.2782 28.9881C20.3681 28.9881 20.5398 28.9522 20.6597 28.9084C20.797 28.8581 20.8171 28.8287 20.7142 28.8287C20.6242 28.8287 20.4526 28.8646 20.3327 28.9084ZM88.6173 28.9547C89.1148 29.1175 89.3107 29.1152 88.8898 28.9515C88.7099 28.8813 88.4892 28.8255 88.3993 28.8269C88.3094 28.8285 88.4075 28.8859 88.6173 28.9547ZM90.1432 29.4179C90.293 29.4906 90.4647 29.5503 90.5247 29.5503C90.5846 29.5503 90.511 29.4906 90.3612 29.4179C90.2113 29.3452 90.0396 29.2854 89.9797 29.2854C89.9197 29.2854 89.9933 29.3452 90.1432 29.4179ZM59.1126 30.3905C59.1126 30.6707 59.1331 30.7853 59.1582 30.6452C59.183 30.5051 59.183 30.2759 59.1582 30.1358C59.1331 29.9957 59.1126 30.1103 59.1126 30.3905ZM49.952 30.4368C49.9531 30.6406 49.9754 30.7131 50.0016 30.5978C50.0277 30.4827 50.0267 30.3159 49.9994 30.2272C49.9722 30.1388 49.9506 30.233 49.952 30.4368ZM66.2269 30.4435C66.1866 30.5792 66.1749 30.7082 66.2005 30.73C66.2264 30.7518 66.2801 30.6587 66.3201 30.5227C66.3605 30.387 66.3722 30.258 66.3466 30.2363C66.3207 30.2145 66.267 30.3076 66.2269 30.4435ZM15.4792 31.3863L14.774 32.0115L15.5097 31.4122C15.9143 31.0825 16.2454 30.8011 16.2454 30.787C16.2454 30.7186 16.1345 30.8055 15.4792 31.3863ZM93.522 31.3631C93.8476 31.6433 94.1386 31.8726 94.1686 31.8726C94.1986 31.8726 93.9566 31.6433 93.631 31.3631C93.3054 31.0829 93.0143 30.8537 92.9844 30.8537C92.9544 30.8537 93.1964 31.0829 93.522 31.3631ZM58.9963 31.2242C58.9963 31.4025 59.0186 31.4754 59.0462 31.3863C59.0734 31.2971 59.0734 31.1512 59.0462 31.0621C59.0186 30.9729 58.9963 31.0459 58.9963 31.2242ZM74.3936 31.7418L74.0666 31.9805L74.4208 31.7814C74.6157 31.6718 74.7751 31.5641 74.7751 31.5421C74.7751 31.4727 74.729 31.497 74.3936 31.7418ZM43.1799 31.6873C43.1783 31.7638 43.244 31.9513 43.3265 32.1042C43.5192 32.462 43.5219 32.2955 43.3304 31.8726C43.2494 31.6943 43.1819 31.6109 43.1799 31.6873ZM34.8833 31.8971C34.8833 31.9175 35.0918 32.075 35.3466 32.2471C35.6013 32.4191 35.7406 32.4867 35.6561 32.3971C35.4967 32.2285 34.8833 31.8316 34.8833 31.8971ZM14.5952 32.22C14.2816 32.5416 14.1489 32.7063 14.2029 32.7063C14.2328 32.7063 14.3887 32.5604 14.5486 32.3821C14.8457 32.0511 14.8816 31.9263 14.5952 32.22ZM36.2458 32.8915C36.4798 33.0953 36.6959 33.2621 36.7259 33.2621C36.7559 33.2621 36.5888 33.0953 36.3548 32.8915C36.1207 32.6878 35.9046 32.521 35.8746 32.521C35.8447 32.521 36.0117 32.6878 36.2458 32.8915ZM72.8072 32.8684L72.4317 33.2158L72.8404 32.8966C73.2208 32.5993 73.2993 32.521 73.2159 32.521C73.1979 32.521 73.014 32.6773 72.8072 32.8684ZM50.379 33.0305C50.3773 33.1324 50.4179 33.2991 50.4694 33.401C50.5888 33.637 50.5888 33.3936 50.4694 33.0768C50.3994 32.8906 50.3814 32.8816 50.379 33.0305ZM13.2429 34.0117C13.147 34.1694 13.0879 34.3146 13.1116 34.3347C13.1353 34.3549 13.2361 34.2259 13.3358 34.0483C13.5598 33.6488 13.4821 33.6182 13.2429 34.0117ZM70.7363 34.6284L70.3608 34.9757L70.7695 34.6566C71.1499 34.3593 71.2284 34.281 71.145 34.281C71.127 34.281 70.9431 34.4373 70.7363 34.6284ZM96.0365 34.5126C96.0365 34.5635 96.1068 34.7094 96.1923 34.8368C96.2779 34.9642 96.3482 35.0267 96.3482 34.9757C96.3482 34.9248 96.2779 34.7789 96.1923 34.6515C96.1068 34.5242 96.0365 34.4616 96.0365 34.5126ZM38.9161 35.3C39.0442 35.4528 39.1733 35.5778 39.2033 35.5778C39.2333 35.5778 39.1532 35.4528 39.0251 35.3C38.897 35.1471 38.7679 35.0221 38.7379 35.0221C38.7079 35.0221 38.788 35.1471 38.9161 35.3ZM57.9491 35.5894C57.8584 35.9755 57.9464 36.0503 58.0445 35.6705C58.0859 35.5105 58.0971 35.3599 58.0693 35.3365C58.0415 35.3129 57.9876 35.4266 57.9491 35.5894ZM44.8375 36.2726C44.838 36.6292 44.8576 36.7638 44.8813 36.5716C44.905 36.3793 44.9045 36.0876 44.8805 35.9231C44.8563 35.7587 44.8369 35.916 44.8375 36.2726ZM12.2824 36.2457C12.2456 36.3624 12.22 36.5412 12.2252 36.6431C12.2303 36.745 12.2794 36.6658 12.3342 36.4671C12.4404 36.0822 12.3952 35.8882 12.2824 36.2457ZM96.7013 36.18C96.6997 36.2818 96.7403 36.4486 96.7918 36.5505C96.9111 36.7865 96.9111 36.5431 96.7918 36.2263C96.7218 36.0401 96.7038 36.031 96.7013 36.18ZM26.2183 36.365C26.2783 36.3823 26.7933 36.4143 27.3628 36.4358C27.9323 36.4574 28.2756 36.4442 28.1257 36.4062C27.865 36.3402 25.9933 36.2999 26.2183 36.365ZM80.9877 36.4062C80.8378 36.4442 81.1812 36.4574 81.7507 36.4358C82.3201 36.4143 82.8351 36.3823 82.8951 36.365C83.1202 36.2999 81.2485 36.3402 80.9877 36.4062ZM79.3528 36.8284C79.2029 36.9011 79.1294 36.9608 79.1893 36.9608C79.2492 36.9608 79.4209 36.9011 79.5708 36.8284C79.7206 36.7557 79.7942 36.6959 79.7343 36.6959C79.6743 36.6959 79.5027 36.7557 79.3528 36.8284ZM78.3446 37.2056C77.922 37.4004 77.9699 37.4678 78.3991 37.282C78.81 37.1046 78.8828 37.0586 78.7443 37.0637C78.6893 37.0657 78.5095 37.1297 78.3446 37.2056ZM64.4206 37.305C64.4206 37.355 64.58 37.5182 64.7749 37.6678L65.1291 37.9399L64.8021 37.6162C64.6223 37.4381 64.4629 37.2749 64.4479 37.2533C64.4329 37.232 64.4206 37.2552 64.4206 37.305ZM77.3092 37.719C76.9378 37.9212 76.8173 38.0571 77.1457 37.9036C77.3958 37.7869 77.7876 37.5294 77.7179 37.5275C77.6879 37.5268 77.504 37.613 77.3092 37.719ZM12.0303 38.3105C12.0309 38.6671 12.0505 38.8016 12.0742 38.6094C12.0979 38.4172 12.0974 38.1254 12.0734 37.961C12.0491 37.7966 12.0298 37.9538 12.0303 38.3105ZM42.8671 38.1428C42.972 38.166 43.1437 38.166 43.2486 38.1428C43.3535 38.1194 43.2677 38.1004 43.0579 38.1004C42.8481 38.1004 42.7622 38.1194 42.8671 38.1428ZM57.3614 38.3568C57.3614 38.5351 57.3837 38.608 57.4113 38.5189C57.4385 38.4297 57.4385 38.2838 57.4113 38.1947C57.3837 38.1055 57.3614 38.1785 57.3614 38.3568ZM65.8648 38.1428C65.9697 38.166 66.1414 38.166 66.2463 38.1428C66.3512 38.1194 66.2654 38.1004 66.0555 38.1004C65.8457 38.1004 65.7599 38.1194 65.8648 38.1428ZM86.2859 38.9589C86.3755 39.2995 86.4379 39.3734 86.4358 39.1365C86.4349 39.0388 86.3843 38.8964 86.3235 38.8199C86.2426 38.7185 86.2325 38.756 86.2859 38.9589ZM22.6368 39.2099C22.6 39.3266 22.5769 39.6721 22.585 39.9778C22.5995 40.5202 22.6016 40.5158 22.676 39.7926C22.7564 39.0101 22.7466 38.8621 22.6368 39.2099ZM86.4701 39.8389C86.4701 40.1191 86.4905 40.2337 86.5156 40.0936C86.5404 39.9535 86.5404 39.7243 86.5156 39.5841C86.4905 39.444 86.4701 39.5587 86.4701 39.8389ZM96.7373 40.302C96.6959 40.4621 96.6847 40.6126 96.7125 40.636C96.7403 40.6596 96.7942 40.5459 96.8327 40.3831C96.9234 39.9971 96.8354 39.9223 96.7373 40.302ZM36.3548 40.7652C36.5888 40.969 36.8049 41.1357 36.8349 41.1357C36.8648 41.1357 36.6978 40.969 36.4637 40.7652C36.2297 40.5614 36.0136 40.3947 35.9836 40.3947C35.9537 40.3947 36.1207 40.5614 36.3548 40.7652ZM86.2875 40.7768C86.1968 41.1628 86.2848 41.2376 86.3829 40.8578C86.4243 40.6978 86.4355 40.5473 86.4077 40.5239C86.3799 40.5003 86.3259 40.614 86.2875 40.7768ZM71.4467 41.7147L70.9058 42.201L71.478 41.7413C71.7927 41.4884 72.0502 41.2696 72.0502 41.255C72.0502 41.186 71.9491 41.2629 71.4467 41.7147ZM37.7172 41.8305C38.0428 42.1107 38.3338 42.3399 38.3638 42.3399C38.3938 42.3399 38.1518 42.1107 37.8262 41.8305C37.5006 41.5502 37.2095 41.321 37.1796 41.321C37.1496 41.321 37.3916 41.5502 37.7172 41.8305ZM12.711 41.6915C12.7511 41.8189 12.8295 41.9856 12.8849 42.062C12.9552 42.1586 12.9639 42.1303 12.9132 41.9694C12.8731 41.842 12.7947 41.6753 12.7394 41.5989C12.669 41.5023 12.6603 41.5306 12.711 41.6915ZM70.1913 42.6873L69.8158 43.0347L70.2246 42.7155C70.605 42.4182 70.6834 42.3399 70.6 42.3399C70.5821 42.3399 70.3981 42.4962 70.1913 42.6873ZM24.3109 43.0347C24.5142 43.213 24.7052 43.3589 24.7352 43.3589C24.7652 43.3589 24.6232 43.213 24.4199 43.0347C24.2167 42.8563 24.0257 42.7105 23.9957 42.7105C23.9657 42.7105 24.1077 42.8563 24.3109 43.0347ZM59.1344 43.7294C59.3685 43.9332 59.5846 44.0999 59.6146 44.0999C59.6445 44.0999 59.4775 43.9332 59.2434 43.7294C59.0094 43.5256 58.7933 43.3589 58.7633 43.3589C58.7334 43.3589 58.9004 43.5256 59.1344 43.7294ZM49.8632 43.7526L49.543 44.0536L49.8972 43.7815C50.0921 43.6319 50.2515 43.4964 50.2515 43.4805C50.2515 43.4089 50.1615 43.4719 49.8632 43.7526ZM95.1986 43.7526C94.8234 44.2935 94.7988 44.3396 94.9899 44.1462C95.2114 43.9221 95.4021 43.6368 95.3307 43.6368C95.3021 43.6368 95.2427 43.6889 95.1986 43.7526ZM43.5483 45.2115C43.6682 45.2553 43.8399 45.2912 43.9298 45.2912C44.0328 45.2912 44.0127 45.2617 43.8753 45.2115C43.7554 45.1677 43.5838 45.1318 43.4938 45.1318C43.3908 45.1318 43.411 45.1612 43.5483 45.2115ZM65.2381 45.2115C65.1008 45.2617 65.0806 45.2912 65.1836 45.2912C65.2735 45.2912 65.4452 45.2553 65.5651 45.2115C65.7024 45.1612 65.7226 45.1318 65.6196 45.1318C65.5297 45.1318 65.358 45.1677 65.2381 45.2115ZM29.3247 45.6283C29.4745 45.7011 29.6462 45.7608 29.7061 45.7608C29.7661 45.7608 29.6925 45.7011 29.5426 45.6283C29.3928 45.5556 29.2211 45.4959 29.1612 45.4959C29.1012 45.4959 29.1748 45.5556 29.3247 45.6283ZM16.4634 46.7399C16.8495 47.0711 17.1901 47.342 17.2201 47.342C17.2501 47.342 16.9585 47.0711 16.5724 46.7399C16.1863 46.4088 15.8457 46.1378 15.8157 46.1378C15.7857 46.1378 16.0773 46.4088 16.4634 46.7399ZM92.5372 46.7631L91.9416 47.2957L92.5683 46.7895C92.913 46.5109 93.195 46.2712 93.195 46.2568C93.195 46.1881 93.0909 46.2682 92.5372 46.7631ZM76.5734 46.5514C76.1525 46.7151 76.3484 46.7174 76.8459 46.5546C77.0557 46.4859 77.1538 46.4284 77.0639 46.4268C76.974 46.4254 76.7533 46.4812 76.5734 46.5514ZM52.3376 46.9852C52.1362 47.0345 51.9926 47.0926 52.0185 47.1146C52.0444 47.1366 52.2826 47.0965 52.5482 47.0259C53.0902 46.8814 52.9068 46.846 52.3376 46.9852ZM56.3006 46.9715C56.4205 47.0153 56.5922 47.0512 56.6821 47.0512C56.7851 47.0512 56.7649 47.0217 56.6276 46.9715C56.5077 46.9277 56.336 46.8918 56.2461 46.8918C56.1431 46.8918 56.1633 46.9212 56.3006 46.9715ZM74.9385 46.9715C74.8012 47.0217 74.781 47.0512 74.884 47.0512C74.974 47.0512 75.1456 47.0153 75.2655 46.9715C75.4029 46.9212 75.423 46.8918 75.32 46.8918C75.2301 46.8918 75.0584 46.9277 74.9385 46.9715ZM51.0962 47.395C50.6735 47.5898 50.7215 47.6572 51.1507 47.4715C51.5616 47.2941 51.6343 47.248 51.4959 47.2531C51.4408 47.2552 51.261 47.3191 51.0962 47.395ZM35.6463 47.4191C35.7362 47.4661 35.9324 47.5328 36.0823 47.5669C36.2716 47.6099 36.3049 47.6025 36.1913 47.5428C36.1013 47.4958 35.9052 47.4291 35.7553 47.395C35.5659 47.352 35.5327 47.3594 35.6463 47.4191ZM73.0857 47.4842C72.8132 47.5958 72.8039 47.6086 73.0312 47.5616C73.3399 47.4974 73.687 47.3469 73.5216 47.349C73.4617 47.3497 73.2655 47.4106 73.0857 47.4842ZM90.8516 47.9557C90.6557 48.0974 90.6157 48.1537 90.7516 48.0963C90.9514 48.012 91.326 47.707 91.2192 47.7158C91.1969 47.7176 91.0315 47.8255 90.8516 47.9557ZM18.6433 48.2171C18.6433 48.2426 18.7904 48.3283 18.9703 48.4073C19.1501 48.4862 19.2972 48.5302 19.2972 48.5048C19.2972 48.4793 19.1501 48.3936 18.9703 48.3146C18.7904 48.2357 18.6433 48.1917 18.6433 48.2171ZM38.1532 48.2171C38.1532 48.2426 38.3003 48.3283 38.4801 48.4073C38.66 48.4862 38.8071 48.5302 38.8071 48.5048C38.8071 48.4793 38.66 48.3936 38.4801 48.3146C38.3003 48.2357 38.1532 48.1917 38.1532 48.2171ZM70.606 48.3214C70.1987 48.5092 70.2235 48.5874 70.6333 48.4073C70.8131 48.3283 70.9603 48.2438 70.9603 48.2197C70.9603 48.1599 70.9486 48.1634 70.606 48.3214ZM48.8839 48.7546L48.4531 49.1483L48.9163 48.7822C49.3471 48.4415 49.4296 48.361 49.3471 48.361C49.3294 48.361 49.1209 48.5381 48.8839 48.7546ZM19.8422 48.7769C19.8422 48.8403 20.5095 49.1215 20.5594 49.0791C20.5831 49.0589 20.4313 48.9733 20.2223 48.8885C20.0133 48.8037 19.8422 48.7535 19.8422 48.7769ZM61.1369 49.7967C61.1958 49.8986 61.3236 50.0654 61.4214 50.1673L61.5988 50.3525L61.4917 50.1673C61.4329 50.0654 61.3051 49.8986 61.2072 49.7967L61.0298 49.6115L61.1369 49.7967ZM25.2374 50.6767C25.3573 50.7205 25.529 50.7564 25.6189 50.7564C25.7219 50.7564 25.7017 50.727 25.5644 50.6767C25.4445 50.633 25.2728 50.5971 25.1829 50.5971C25.0799 50.5971 25.1001 50.6265 25.2374 50.6767ZM61.7034 50.6304C61.7034 50.6814 61.7737 50.8273 61.8593 50.9546C61.9449 51.082 62.0152 51.1445 62.0152 51.0936C62.0152 51.0426 61.9449 50.8967 61.8593 50.7694C61.7737 50.642 61.7034 50.5795 61.7034 50.6304ZM67.1948 51.1485C67.0989 51.3062 67.0398 51.4514 67.0635 51.4715C67.0872 51.4917 67.188 51.3627 67.2877 51.1851C67.5117 50.7856 67.434 50.755 67.1948 51.1485ZM28.0998 51.2054C28.2353 51.2277 28.4315 51.2267 28.5358 51.2036C28.6399 51.1804 28.529 51.1621 28.2892 51.1633C28.0494 51.1642 27.9641 51.1832 28.0998 51.2054ZM80.6348 51.2054C80.7703 51.2277 80.9664 51.2267 81.0708 51.2036C81.1749 51.1804 81.064 51.1621 80.8242 51.1633C80.5844 51.1642 80.4991 51.1832 80.6348 51.2054ZM42.1461 51.9273C42.2606 52.368 42.417 52.6326 42.3374 52.2515C42.3004 52.0732 42.2257 51.8647 42.172 51.7883C42.108 51.6975 42.099 51.7457 42.1461 51.9273ZM66.7774 52.116C66.74 52.1989 66.7144 52.3571 66.7207 52.4675C66.7278 52.5944 66.7648 52.5493 66.8212 52.3448C66.9166 52.0004 66.8907 51.8654 66.7774 52.116ZM76.4852 52.2746C76.1456 52.5602 76.1443 52.5639 76.4593 52.3448C76.6421 52.2179 76.838 52.0824 76.895 52.0437C76.9519 52.0051 76.9634 51.9736 76.9206 51.9736C76.8778 51.9736 76.6819 52.109 76.4852 52.2746ZM62.3751 52.5294C62.3751 52.7077 62.3974 52.7806 62.425 52.6915C62.4522 52.6023 62.4522 52.4564 62.425 52.3673C62.3974 52.2781 62.3751 52.351 62.3751 52.5294ZM66.6398 53.5483C66.6398 54.0323 66.6583 54.2303 66.6806 53.9883C66.703 53.7463 66.703 53.3503 66.6806 53.1083C66.6583 52.8663 66.6398 53.0643 66.6398 53.5483ZM46.5838 53.5483C46.5838 53.9814 46.6026 54.1585 46.6255 53.942C46.6484 53.7255 46.6484 53.3711 46.6255 53.1546C46.6026 52.9381 46.5838 53.1153 46.5838 53.5483ZM42.4404 53.5483C42.4404 53.9304 42.4598 54.0867 42.4832 53.8957C42.5069 53.7046 42.5069 53.392 42.4832 53.2009C42.4598 53.0099 42.4404 53.1662 42.4404 53.5483ZM62.4953 53.5483C62.4953 53.9304 62.5146 54.0867 62.538 53.8957C62.5618 53.7046 62.5618 53.392 62.538 53.2009C62.5146 53.0099 62.4953 53.1662 62.4953 53.5483ZM33.2781 53.5483C33.2781 53.7776 33.2994 53.8714 33.3253 53.7567C33.3514 53.6421 33.3514 53.4545 33.3253 53.3399C33.2994 53.2253 33.2781 53.319 33.2781 53.5483ZM42.2483 54.8055C42.208 54.9412 42.1963 55.0702 42.2219 55.092C42.2478 55.1138 42.3015 55.0207 42.3415 54.8847C42.3818 54.749 42.3936 54.62 42.3679 54.5983C42.3421 54.5765 42.2884 54.6696 42.2483 54.8055ZM31.232 55.3579C30.9596 55.4695 30.9503 55.4822 31.1776 55.4352C31.4863 55.3711 31.8334 55.2205 31.668 55.2226C31.6081 55.2233 31.4119 55.2842 31.232 55.3579ZM47.041 55.8872C47.0819 56.0019 47.1601 56.1364 47.2149 56.1862C47.2697 56.236 47.2593 56.1422 47.192 55.9778C47.0539 55.6413 46.9263 55.5649 47.041 55.8872ZM28.5358 55.837C28.6712 55.8592 28.8674 55.8583 28.9718 55.8351C29.0759 55.812 28.965 55.7937 28.7252 55.7948C28.4854 55.7958 28.4001 55.8148 28.5358 55.837ZM80.1989 55.837C80.3343 55.8592 80.5305 55.8583 80.6348 55.8351C80.7389 55.812 80.628 55.7937 80.3882 55.7948C80.1484 55.7958 80.0632 55.8148 80.1989 55.837ZM41.5865 56.2346C41.4935 56.3875 41.4418 56.5125 41.4717 56.5125C41.5017 56.5125 41.6025 56.3875 41.6954 56.2346C41.7884 56.0818 41.8401 55.9567 41.8102 55.9567C41.7802 55.9567 41.6794 56.0818 41.5865 56.2346ZM23.9295 56.7473C23.657 56.8589 23.6477 56.8717 23.875 56.8247C24.1837 56.7605 24.5308 56.61 24.3654 56.6121C24.3055 56.6128 24.1093 56.6737 23.9295 56.7473ZM84.8025 56.6823C84.8924 56.7293 85.0886 56.796 85.2385 56.83C85.4278 56.8731 85.4611 56.8657 85.3475 56.8059C85.2575 56.7589 85.0613 56.6922 84.9115 56.6582C84.7221 56.6151 84.6889 56.6225 84.8025 56.6823ZM40.551 57.3925C40.2862 57.6218 40.0941 57.8093 40.124 57.8093C40.154 57.8093 40.3952 57.6218 40.66 57.3925C40.9249 57.1632 41.117 56.9757 41.087 56.9757C41.057 56.9757 40.8159 57.1632 40.551 57.3925ZM68.4488 57.3693C68.7161 57.6113 68.9491 57.8093 68.9665 57.8093C69.0485 57.8093 68.9619 57.7262 68.4807 57.3422L67.9629 56.9293L68.4488 57.3693ZM48.0784 57.4851C48.3454 57.8119 48.8348 58.2813 48.8299 58.2063C48.8275 58.1662 48.6231 57.946 48.3759 57.7167C48.1291 57.4874 47.995 57.3832 48.0784 57.4851ZM21.4771 57.5778C21.3272 57.6505 21.2537 57.7102 21.3136 57.7102C21.3736 57.7102 21.5452 57.6505 21.6951 57.5778C21.845 57.505 21.9185 57.4453 21.8586 57.4453C21.7986 57.4453 21.627 57.505 21.4771 57.5778ZM87.4183 57.5778C87.5682 57.6505 87.7399 57.7102 87.7998 57.7102C87.8598 57.7102 87.7862 57.6505 87.6363 57.5778C87.4865 57.505 87.3148 57.4453 87.2548 57.4453C87.1949 57.4453 87.2685 57.505 87.4183 57.5778ZM60.4356 58.0178L60.1154 58.3188L60.4696 58.0467C60.7999 57.7931 60.874 57.7167 60.7898 57.7167C60.771 57.7167 60.6116 57.8522 60.4356 58.0178ZM39.5156 58.1417L39.1886 58.3804L39.5428 58.1813C39.7377 58.0717 39.8971 57.964 39.8971 57.942C39.8971 57.8726 39.851 57.8969 39.5156 58.1417ZM38.5619 58.6034C38.1545 58.7912 38.1793 58.8695 38.5891 58.6893C38.769 58.6104 38.9161 58.5258 38.9161 58.5018C38.9161 58.442 38.9044 58.4455 38.5619 58.6034ZM50.4694 59.3329C50.4694 59.3584 50.6166 59.4441 50.7964 59.523C50.9763 59.602 51.1234 59.646 51.1234 59.6205C51.1234 59.595 50.9763 59.5094 50.7964 59.4304C50.6166 59.3514 50.4694 59.3074 50.4694 59.3329ZM17.1114 59.8241L16.7359 60.1714L17.1446 59.8523C17.525 59.555 17.6035 59.4767 17.5201 59.4767C17.5021 59.4767 17.3182 59.633 17.1114 59.8241ZM91.9416 59.8472C92.1756 60.051 92.3917 60.2178 92.4217 60.2178C92.4517 60.2178 92.2846 60.051 92.0506 59.8472C91.8165 59.6434 91.6004 59.4767 91.5704 59.4767C91.5405 59.4767 91.7075 59.6434 91.9416 59.8472ZM74.5571 59.9862C75.0546 60.149 75.2505 60.1467 74.8296 59.9829C74.6497 59.9128 74.429 59.857 74.3391 59.8583C74.2492 59.86 74.3473 59.9174 74.5571 59.9862ZM53.8224 60.2833C53.9578 60.3055 54.154 60.3046 54.2583 60.2814C54.3624 60.2583 54.2515 60.24 54.0117 60.2411C53.772 60.2421 53.6867 60.2611 53.8224 60.2833ZM54.9123 60.2833C55.0477 60.3055 55.2439 60.3046 55.3483 60.2814C55.4524 60.2583 55.3415 60.24 55.1017 60.2411C54.8619 60.2421 54.7766 60.2611 54.9123 60.2833ZM16.0767 60.7041L15.6459 61.0977L16.1092 60.7316C16.54 60.391 16.6225 60.3104 16.54 60.3104C16.5223 60.3104 16.3138 60.4875 16.0767 60.7041ZM92.9225 60.6809C93.1566 60.8847 93.3727 61.0514 93.4026 61.0514C93.4326 61.0514 93.2656 60.8847 93.0315 60.6809C92.7974 60.4771 92.5814 60.3104 92.5514 60.3104C92.5214 60.3104 92.6885 60.4771 92.9225 60.6809ZM45.0484 61.6737C45.2143 61.695 45.4595 61.6945 45.5933 61.6725C45.7274 61.6505 45.592 61.6329 45.2922 61.6336C44.9925 61.6343 44.8827 61.6524 45.0484 61.6737ZM63.4669 61.6737C63.6318 61.6948 63.9016 61.6948 64.0664 61.6737C64.2313 61.6524 64.0964 61.635 63.7667 61.635C63.437 61.635 63.3021 61.6524 63.4669 61.6737ZM46.4367 61.7925C46.8094 61.8939 47.0958 61.8939 46.8182 61.7925C46.6983 61.7487 46.5021 61.7142 46.3822 61.7156C46.207 61.7177 46.2176 61.733 46.4367 61.7925ZM62.2953 61.7925C62.0176 61.8939 62.304 61.8939 62.6767 61.7925C62.8958 61.733 62.9064 61.7177 62.7312 61.7156C62.6113 61.7142 62.4152 61.7487 62.2953 61.7925ZM49.3795 62.933C49.3795 62.949 49.5389 63.0845 49.7337 63.2341L50.088 63.5062L49.7678 63.2051C49.4694 62.9244 49.3795 62.8614 49.3795 62.933ZM59.3456 63.2051L59.0255 63.5062L59.3797 63.2341C59.5745 63.0845 59.7339 62.949 59.7339 62.933C59.7339 62.8614 59.644 62.9244 59.3456 63.2051ZM25.4554 63.2364L25.1284 63.4751L25.4826 63.276C25.6775 63.1664 25.8369 63.0588 25.8369 63.0368C25.8369 62.9673 25.7908 62.9916 25.4554 63.2364ZM24.2529 64.1314L23.6025 64.7104L24.2837 64.1576C24.9164 63.644 25.0148 63.5525 24.9341 63.5525C24.9175 63.5525 24.611 63.813 24.2529 64.1314ZM84.748 64.1083C85.1038 64.4139 85.4197 64.6641 85.4496 64.6641C85.4796 64.6641 85.2128 64.4139 84.857 64.1083C84.5011 63.8026 84.1853 63.5525 84.1553 63.5525C84.1254 63.5525 84.3921 63.8026 84.748 64.1083ZM38.2621 64.803C37.9973 65.0323 37.8052 65.2198 37.8352 65.2198C37.8651 65.2198 38.1063 65.0323 38.3711 64.803C38.636 64.5737 38.8281 64.3862 38.7981 64.3862C38.7682 64.3862 38.527 64.5737 38.2621 64.803ZM70.7968 64.8493C71.0308 65.0531 71.2469 65.2198 71.2769 65.2198C71.3069 65.2198 71.1398 65.0531 70.9058 64.8493C70.6717 64.6455 70.4556 64.4788 70.4257 64.4788C70.3957 64.4788 70.5627 64.6455 70.7968 64.8493ZM36.7324 66.0304L36.1368 66.563L36.7635 66.0568C37.1082 65.7782 37.3902 65.5385 37.3902 65.5241C37.3902 65.4554 37.2861 65.5355 36.7324 66.0304ZM51.4656 65.683C51.4656 65.7594 51.5079 65.9053 51.5594 66.0072C51.6185 66.1239 51.6531 66.1411 51.6531 66.0535C51.6531 65.9771 51.6109 65.8312 51.5594 65.7293C51.5003 65.6126 51.4656 65.5955 51.4656 65.683ZM72.4317 66.1462C72.6657 66.3499 72.8818 66.5167 72.9118 66.5167C72.9418 66.5167 72.7747 66.3499 72.5407 66.1462C72.3066 65.9424 72.0905 65.7756 72.0606 65.7756C72.0306 65.7756 72.1976 65.9424 72.4317 66.1462ZM22.6357 66.4472C22.5488 66.7232 22.5627 67.7253 22.6564 67.9258C22.6973 68.0131 22.7305 67.6692 22.7305 67.1616C22.7305 66.1492 22.7303 66.1473 22.6357 66.4472ZM86.4701 67.1651C86.4701 67.4453 86.4905 67.5599 86.5156 67.4198C86.5404 67.2797 86.5404 67.0505 86.5156 66.9104C86.4905 66.7703 86.4701 66.8849 86.4701 67.1651ZM12.0303 68.6935C12.0309 69.0501 12.0505 69.1847 12.0742 68.9925C12.0979 68.8003 12.0974 68.5085 12.0734 68.3441C12.0491 68.1796 12.0298 68.3369 12.0303 68.6935ZM51.5049 69.4809C51.4629 69.6916 51.4515 69.8834 51.4795 69.907C51.5076 69.9308 51.5629 69.7766 51.603 69.5642C51.643 69.3519 51.6542 69.1601 51.6283 69.1381C51.6024 69.1159 51.5468 69.2701 51.5049 69.4809ZM23.7613 69.5967C24.0287 69.8387 24.2616 70.0367 24.2791 70.0367C24.3611 70.0367 24.2744 69.9535 23.7932 69.5696L23.2755 69.1567L23.7613 69.5967ZM85.1788 69.6893L84.748 70.083L85.2112 69.7169C85.642 69.3762 85.7246 69.2956 85.642 69.2956C85.6243 69.2956 85.4158 69.4728 85.1788 69.6893ZM40.493 70.1525L39.8426 70.7314L40.5238 70.1786C41.1565 69.665 41.2548 69.5735 41.1742 69.5735C41.1576 69.5735 40.851 69.834 40.493 70.1525ZM68.4534 70.083C68.779 70.3632 69.07 70.5924 69.1 70.5924C69.13 70.5924 68.888 70.3632 68.5624 70.083C68.2368 69.8028 67.9458 69.5735 67.9158 69.5735C67.8858 69.5735 68.1278 69.8028 68.4534 70.083ZM44.8375 70.824C44.838 71.1807 44.8576 71.3152 44.8813 71.123C44.905 70.9308 44.9045 70.639 44.8805 70.4746C44.8563 70.3102 44.8369 70.4674 44.8375 70.824ZM26.7374 70.7515C26.9034 70.7728 27.1486 70.7724 27.2824 70.7504C27.4165 70.7284 27.281 70.7108 26.9813 70.7115C26.6816 70.7122 26.5717 70.7302 26.7374 70.7515ZM69.3237 70.9174C69.7578 71.3615 69.7943 71.3902 69.6758 71.1936C69.6139 71.091 69.4485 70.9245 69.3082 70.8236C69.0619 70.6466 69.0624 70.6499 69.3237 70.9174ZM81.8883 70.7515C82.0542 70.7728 82.2994 70.7724 82.4332 70.7504C82.5673 70.7284 82.4319 70.7108 82.1321 70.7115C81.8324 70.7122 81.7226 70.7302 81.8883 70.7515ZM96.6419 70.9746C96.6035 71.1374 96.5926 71.2876 96.6171 71.3085C96.6419 71.3296 96.6959 71.2156 96.7373 71.0556C96.7787 70.8956 96.7899 70.7451 96.7621 70.7217C96.7343 70.698 96.6803 70.8118 96.6419 70.9746ZM39.6638 70.9398C39.3502 71.2615 39.2175 71.4261 39.2714 71.4261C39.3014 71.4261 39.4573 71.2802 39.6172 71.1019C39.9142 70.771 39.9502 70.6462 39.6638 70.9398ZM50.9599 71.704C50.9185 71.864 50.9073 72.0146 50.9351 72.038C50.9629 72.0616 51.0169 71.9479 51.0553 71.7851C51.146 71.399 51.058 71.3242 50.9599 71.704ZM58.0085 71.5651C58.0069 71.667 58.0475 71.8337 58.099 71.9356C58.2184 72.1716 58.2184 71.9282 58.099 71.6114C58.029 71.4252 58.011 71.4162 58.0085 71.5651ZM12.708 72.0051C12.7489 72.1197 12.8271 72.2543 12.8819 72.304C12.9366 72.3538 12.9263 72.26 12.859 72.0956C12.7208 71.7591 12.5933 71.6827 12.708 72.0051ZM64.483 72.3524C64.5231 72.4798 64.6016 72.6465 64.6569 72.723C64.7272 72.8195 64.7359 72.7913 64.6852 72.6303C64.6452 72.503 64.5667 72.3362 64.5114 72.2598C64.4411 72.1632 64.4324 72.1915 64.483 72.3524ZM70.7423 72.474C70.7423 72.49 70.9017 72.6255 71.0965 72.7751L71.4507 73.0472L71.1306 72.7461C70.8322 72.4655 70.7423 72.4025 70.7423 72.474ZM37.8739 72.8388L37.5537 73.1398L37.9079 72.8677C38.2382 72.6141 38.3123 72.5377 38.2281 72.5377C38.2093 72.5377 38.0499 72.6732 37.8739 72.8388ZM95.5384 73.3714C95.4455 73.5242 95.3937 73.6493 95.4236 73.6493C95.4536 73.6493 95.5544 73.5242 95.6474 73.3714C95.7403 73.2185 95.792 73.0935 95.7621 73.0935C95.7321 73.0935 95.6313 73.2185 95.5384 73.3714ZM36.8414 73.7188L36.2458 74.2514L36.8725 73.7452C37.4548 73.2746 37.5491 73.1861 37.4681 73.1861C37.4512 73.1861 37.1692 73.4258 36.8414 73.7188ZM72.1592 73.6956C72.4848 73.9758 72.7758 74.2051 72.8058 74.2051C72.8358 74.2051 72.5938 73.9758 72.2682 73.6956C71.9426 73.4154 71.6516 73.1861 71.6216 73.1861C71.5916 73.1861 71.8336 73.4154 72.1592 73.6956ZM74.7751 75.5357C74.7751 75.5612 74.9222 75.671 75.102 75.7798C75.2819 75.8886 75.429 75.9567 75.429 75.9313C75.429 75.9058 75.2819 75.796 75.102 75.6872C74.9222 75.5783 74.7751 75.5102 74.7751 75.5357ZM42.7854 76.5208C42.744 76.6809 42.7328 76.8314 42.7606 76.8548C42.7884 76.8784 42.8423 76.7647 42.8808 76.6019C42.9715 76.2159 42.8835 76.1411 42.7854 76.5208ZM59.111 76.6598C59.1118 76.9145 59.1331 77.0079 59.1582 76.8671C59.1832 76.726 59.1827 76.5176 59.1568 76.4039C59.1309 76.29 59.1102 76.4051 59.111 76.6598ZM49.952 76.6598C49.9531 76.8636 49.9754 76.9361 50.0016 76.8207C50.0277 76.7056 50.0267 76.5389 49.9994 76.4502C49.9722 76.3618 49.9506 76.456 49.952 76.6598ZM49.8591 78.4198C49.8594 79.184 49.876 79.4844 49.8967 79.0872C49.9171 78.69 49.9168 78.0648 49.8964 77.6977C49.8757 77.3307 49.8588 77.6556 49.8591 78.4198ZM59.2306 78.5124C59.2306 79.1238 59.2483 79.3618 59.2699 79.0413C59.2911 78.7211 59.2909 78.2209 59.2693 77.9298C59.2478 77.6389 59.2304 77.9011 59.2306 78.5124ZM19.8422 77.9874C19.9321 78.0344 20.1283 78.1011 20.2782 78.1352C20.4676 78.1783 20.5008 78.1708 20.3872 78.1111C20.2973 78.0641 20.1011 77.9974 19.9512 77.9633C19.7618 77.9203 19.7286 77.9277 19.8422 77.9874ZM80.0612 78.0525C80.2411 78.1227 80.4618 78.1785 80.5517 78.1771C80.6416 78.1755 80.5435 78.118 80.3337 78.0493C79.8362 77.8865 79.6403 77.8888 80.0612 78.0525ZM88.8898 78.0525C88.6173 78.1641 88.608 78.1769 88.8353 78.1299C89.144 78.0657 89.4911 77.9152 89.3257 77.9173C89.2658 77.918 89.0696 77.9789 88.8898 78.0525ZM22.5398 78.5314C22.6747 78.5536 22.8954 78.5536 23.0303 78.5314C23.1651 78.5094 23.0548 78.4913 22.785 78.4913C22.5153 78.4913 22.4049 78.5094 22.5398 78.5314ZM25.8096 78.5314C25.9445 78.5536 26.1652 78.5536 26.3001 78.5314C26.435 78.5094 26.3246 78.4913 26.0548 78.4913C25.7851 78.4913 25.6747 78.5094 25.8096 78.5314ZM82.8133 78.5314C82.9482 78.5536 83.1689 78.5536 83.3038 78.5314C83.4387 78.5094 83.3283 78.4913 83.0586 78.4913C82.7888 78.4913 82.6785 78.5094 82.8133 78.5314ZM86.03 78.5326C86.196 78.5539 86.4412 78.5534 86.575 78.5314C86.7091 78.5094 86.5736 78.4918 86.2739 78.4925C85.9742 78.4932 85.8643 78.5113 86.03 78.5326ZM23.9022 78.6268C24.187 78.6458 24.6529 78.6458 24.9377 78.6268C25.2224 78.6078 24.9894 78.5921 24.4199 78.5921C23.8504 78.5921 23.6175 78.6078 23.9022 78.6268ZM66.7349 78.8366C66.7349 79.0149 66.7572 79.0879 66.7847 78.9987C66.812 78.9096 66.812 78.7637 66.7847 78.6745C66.7572 78.5854 66.7349 78.6583 66.7349 78.8366ZM84.1758 78.6268C84.4605 78.6458 84.9265 78.6458 85.2112 78.6268C85.496 78.6078 85.263 78.5921 84.6935 78.5921C84.124 78.5921 83.891 78.6078 84.1758 78.6268ZM42.2134 79.4387C42.2145 79.6425 42.2369 79.715 42.263 79.5997C42.2892 79.4846 42.2881 79.3178 42.2609 79.2292C42.2336 79.1407 42.2121 79.2349 42.2134 79.4387ZM59.1053 80.0408C59.1053 80.2192 59.1276 80.2921 59.1552 80.2029C59.1824 80.1138 59.1824 79.9679 59.1552 79.8787C59.1276 79.7896 59.1053 79.8625 59.1053 80.0408ZM42.1066 80.2261C42.1066 80.4554 42.1279 80.5491 42.1538 80.4345C42.1799 80.3199 42.1799 80.1323 42.1538 80.0177C42.1279 79.903 42.1066 79.9968 42.1066 80.2261ZM66.9528 80.4114C66.9528 80.5897 66.9752 80.6626 67.0027 80.5735C67.03 80.4843 67.03 80.3384 67.0027 80.2493C66.9752 80.1601 66.9528 80.233 66.9528 80.4114ZM42.0088 82.2177C42.0091 82.7781 42.0268 82.9953 42.0486 82.7005C42.0704 82.4057 42.0701 81.9472 42.048 81.6816C42.0262 81.4159 42.0085 81.6572 42.0088 82.2177ZM67.0662 82.3566C67.0662 82.5859 67.0874 82.6797 67.1133 82.565C67.1395 82.4504 67.1395 82.2628 67.1133 82.1482C67.0874 82.0336 67.0662 82.1274 67.0662 82.3566ZM51.0144 82.7271C51.1425 82.88 51.2716 83.005 51.3016 83.005C51.3316 83.005 51.2515 82.88 51.1234 82.7271C50.9953 82.5743 50.8662 82.4492 50.8362 82.4492C50.8062 82.4492 50.8863 82.5743 51.0144 82.7271ZM57.8336 82.8892C57.5982 83.1451 57.5794 83.188 57.7619 83.0523C57.9805 82.8902 58.2688 82.5419 58.1846 82.5419C58.1674 82.5419 58.0096 82.6982 57.8336 82.8892ZM42.1006 83.6535C42.0995 83.7808 42.138 83.9892 42.1859 84.1166C42.3034 84.4279 42.3034 84.0916 42.1859 83.6998C42.1113 83.4501 42.1025 83.4455 42.1006 83.6535ZM66.764 84.3019C66.7226 84.4619 66.7114 84.6124 66.7392 84.6358C66.767 84.6594 66.821 84.5457 66.8594 84.3829C66.8978 84.2201 66.9087 84.0698 66.8842 84.049C66.8594 84.0279 66.8054 84.1419 66.764 84.3019ZM42.6843 85.6913C42.7243 85.8187 42.8028 85.9854 42.8581 86.0619C42.9284 86.1584 42.9372 86.1302 42.8865 85.9692C42.8464 85.8419 42.7679 85.6751 42.7126 85.5987C42.6423 85.5021 42.6336 85.5304 42.6843 85.6913ZM66.1588 86.0283C66.0986 86.1628 66.0697 86.29 66.0945 86.311C66.119 86.3321 66.1915 86.2221 66.2553 86.0665C66.397 85.721 66.3114 85.6872 66.1588 86.0283ZM43.1745 86.7566C43.1745 86.8075 43.2448 86.9534 43.3304 87.0808C43.4159 87.2082 43.4862 87.2707 43.4862 87.2198C43.4862 87.1688 43.4159 87.0229 43.3304 86.8955C43.2448 86.7682 43.1745 86.7057 43.1745 86.7566ZM65.6373 87.1311C65.4547 87.4717 65.4896 87.5444 65.6869 87.2348C65.7793 87.0901 65.8343 86.9544 65.8092 86.9333C65.7844 86.912 65.707 87.0011 65.6373 87.1311ZM46.2732 90.7861C46.5073 90.9898 46.7233 91.1566 46.7533 91.1566C46.7833 91.1566 46.6162 90.9898 46.3822 90.7861C46.1481 90.5823 45.932 90.4155 45.9021 90.4155C45.8721 90.4155 46.0391 90.5823 46.2732 90.7861ZM49.8155 92.8703C49.9653 92.943 50.137 93.0027 50.197 93.0027C50.2569 93.0027 50.1833 92.943 50.0335 92.8703C49.8836 92.7975 49.7119 92.7378 49.652 92.7378C49.592 92.7378 49.6656 92.7975 49.8155 92.8703ZM59.08 92.8703C58.9301 92.943 58.8565 93.0027 58.9165 93.0027C58.9764 93.0027 59.1481 92.943 59.2979 92.8703C59.4478 92.7975 59.5214 92.7378 59.4614 92.7378C59.4015 92.7378 59.2298 92.7975 59.08 92.8703ZM57.2816 93.3797C57.1442 93.43 57.1241 93.4594 57.2271 93.4594C57.317 93.4594 57.4886 93.4235 57.6085 93.3797C57.7459 93.3295 57.766 93.3001 57.663 93.3001C57.5731 93.3001 57.4014 93.336 57.2816 93.3797Z" fill="#C488C9"/>
<path fill-rule="evenodd" clip-rule="evenodd" d="M67.064 25.3421C67.0651 25.5459 67.0875 25.6184 67.1136 25.503C67.1398 25.3879 67.1387 25.2212 67.1114 25.1325C67.0842 25.0441 67.0627 25.1383 67.064 25.3421ZM59.1053 29.6494C59.1053 29.8278 59.1276 29.9007 59.1552 29.8116C59.1824 29.7224 59.1824 29.5765 59.1552 29.4873C59.1276 29.3982 59.1053 29.4711 59.1053 29.6494ZM36.9542 33.401C37.1575 33.5793 37.3485 33.7252 37.3785 33.7252C37.4084 33.7252 37.2665 33.5793 37.0632 33.401C36.8599 33.2227 36.6689 33.0768 36.6389 33.0768C36.609 33.0768 36.7509 33.2227 36.9542 33.401ZM68.3921 36.9905L68.0719 37.2915L68.4262 37.0194C68.621 36.8698 68.7804 36.7343 68.7804 36.7184C68.7804 36.6468 68.6905 36.7098 68.3921 36.9905ZM84.9115 37.1815C84.9115 37.1975 85.0709 37.333 85.2657 37.4826L85.62 37.7547L85.2998 37.4536C85.0014 37.173 84.9115 37.11 84.9115 37.1815ZM97.0373 38.3105C97.0384 38.5143 97.0608 38.5867 97.0869 38.4714C97.1131 38.3563 97.112 38.1896 97.0847 38.1009C97.0575 38.0124 97.036 38.1067 97.0373 38.3105ZM97.0351 68.7398C97.0351 68.9181 97.0575 68.9911 97.085 68.9019C97.1123 68.8128 97.1123 68.6669 97.085 68.5777C97.0575 68.4886 97.0351 68.5615 97.0351 68.7398ZM59.1053 77.3545C59.1053 77.5328 59.1276 77.6058 59.1552 77.5166C59.1824 77.4275 59.1824 77.2816 59.1552 77.1924C59.1276 77.1033 59.1053 77.1762 59.1053 77.3545ZM67.0618 81.7082C67.0618 81.8865 67.0842 81.9594 67.1117 81.8703C67.139 81.7811 67.139 81.6352 67.1117 81.5461C67.0842 81.4569 67.0618 81.5299 67.0618 81.7082ZM54.3673 93.7232C54.5028 93.7454 54.6989 93.7445 54.8033 93.7213C54.9074 93.6981 54.7965 93.6798 54.5567 93.681C54.3169 93.6819 54.2316 93.7009 54.3673 93.7232Z" fill="#B56CBC"/>
<path fill-rule="evenodd" clip-rule="evenodd" d="M54.3673 13.3193C54.5027 13.3415 54.6989 13.3406 54.8033 13.3174C54.9074 13.2942 54.7965 13.2759 54.5567 13.2771C54.3169 13.278 54.2316 13.297 54.3673 13.3193ZM62.6721 16.1484C62.9394 16.3904 63.1724 16.5884 63.1898 16.5884C63.2718 16.5884 63.1852 16.5053 62.704 16.1213L62.1863 15.7084L62.6721 16.1484ZM53.8755 22.8586C53.9804 22.8818 54.1521 22.8818 54.257 22.8586C54.3619 22.8353 54.276 22.8163 54.0662 22.8163C53.8564 22.8163 53.7706 22.8353 53.8755 22.8586ZM54.8564 22.8586C54.9613 22.8818 55.133 22.8818 55.2379 22.8586C55.3428 22.8353 55.257 22.8163 55.0472 22.8163C54.8374 22.8163 54.7515 22.8353 54.8564 22.8586ZM51.5534 23.8831L51.1779 24.2305L51.5866 23.9114C51.8114 23.7356 51.9953 23.5793 51.9953 23.564C51.9953 23.4932 51.9032 23.5599 51.5534 23.8831ZM57.1181 23.5647C57.1181 23.5807 57.2775 23.7162 57.4723 23.8658L57.8265 24.1379L57.5063 23.8368C57.208 23.5562 57.1181 23.4932 57.1181 23.5647ZM67.0618 25.9442C67.0618 26.1225 67.0842 26.1955 67.1117 26.1063C67.1389 26.0171 67.1389 25.8712 67.1117 25.7821C67.0842 25.6929 67.0618 25.7659 67.0618 25.9442ZM59.1197 28.4916C59.12 29.001 59.1383 29.1976 59.1603 28.9285C59.1824 28.6592 59.1824 28.2424 59.1598 28.0022C59.1374 27.7619 59.1195 27.9821 59.1197 28.4916ZM23.9597 28.4205C24.2158 28.4401 24.6082 28.4399 24.8316 28.42C25.0548 28.4001 24.845 28.3841 24.3654 28.3843C23.8859 28.3848 23.7033 28.401 23.9597 28.4205ZM84.3422 28.4205C84.5984 28.4401 84.9908 28.4399 85.2142 28.42C85.4374 28.4001 85.2275 28.3841 84.748 28.3843C84.2684 28.3848 84.0858 28.401 84.3422 28.4205ZM97.0351 37.7084C97.0351 37.8867 97.0575 37.9596 97.085 37.8705C97.1122 37.7813 97.1122 37.6354 97.085 37.5463C97.0575 37.4571 97.0351 37.53 97.0351 37.7084ZM97.0351 38.9126C97.0351 39.0909 97.0575 39.1638 97.085 39.0747C97.1122 38.9855 97.1122 38.8396 97.085 38.7505C97.0575 38.6613 97.0351 38.7342 97.0351 38.9126ZM51.8155 39.4684C51.8155 39.9014 51.8343 40.0786 51.8572 39.862C51.8801 39.6455 51.8801 39.2912 51.8572 39.0747C51.8343 38.8581 51.8155 39.0353 51.8155 39.4684ZM86.3595 39.8852C86.3603 40.1399 86.3815 40.2333 86.4066 40.0925C86.4317 39.9514 86.4311 39.743 86.4052 39.6293C86.3793 39.5154 86.3586 39.6305 86.3595 39.8852ZM36.0823 40.6262C36.2855 40.8046 36.4765 40.9505 36.5065 40.9505C36.5365 40.9505 36.3945 40.8046 36.1912 40.6262C35.988 40.4479 35.797 40.302 35.767 40.302C35.737 40.302 35.879 40.4479 36.0823 40.6262ZM71.6142 41.6452C71.3494 41.8744 71.1573 42.062 71.1872 42.062C71.2172 42.062 71.4584 41.8744 71.7232 41.6452C71.9881 41.4159 72.1802 41.2283 72.1502 41.2283C72.1202 41.2283 71.8791 41.4159 71.6142 41.6452ZM57.5044 41.5294C57.5453 41.644 57.6235 41.7786 57.6783 41.8284C57.7331 41.8782 57.7227 41.7844 57.6554 41.6199C57.5172 41.2835 57.3897 41.207 57.5044 41.5294ZM24.2019 42.8494C24.4052 43.0277 24.5962 43.1736 24.6262 43.1736C24.6562 43.1736 24.5142 43.0277 24.3109 42.8494C24.1077 42.6711 23.9166 42.5252 23.8867 42.5252C23.8567 42.5252 23.9987 42.6711 24.2019 42.8494ZM44.9944 45.4639C45.1903 45.4845 45.4846 45.4841 45.6484 45.463C45.8121 45.4419 45.6519 45.425 45.2922 45.4255C44.9325 45.4259 44.7985 45.4433 44.9944 45.4639ZM63.5233 45.4639C63.7193 45.4845 64.0135 45.4841 64.1773 45.463C64.3411 45.4419 64.1808 45.425 63.8212 45.4255C63.4615 45.4259 63.3274 45.4433 63.5233 45.4639ZM83.6035 56.2656C83.6035 56.2895 83.7619 56.3559 83.9553 56.4134C84.1488 56.4706 84.2591 56.4794 84.2006 56.4328C84.0763 56.3339 83.6035 56.2017 83.6035 56.2656ZM40.654 57.4156L40.2785 57.763L40.6872 57.4439C41.0676 57.1466 41.1461 57.0683 41.0627 57.0683C41.0447 57.0683 40.8608 57.2246 40.654 57.4156ZM92.65 60.3567C93.0361 60.6878 93.3767 60.9588 93.4067 60.9588C93.4367 60.9588 93.1451 60.6878 92.759 60.3567C92.3729 60.0255 92.0323 59.7546 92.0023 59.7546C91.9724 59.7546 92.2639 60.0255 92.65 60.3567ZM54.151 60.3782C54.4071 60.3979 54.7995 60.3977 55.0229 60.3778C55.2461 60.3579 55.0363 60.3419 54.5567 60.3421C54.0771 60.3426 53.8946 60.3588 54.151 60.3782ZM15.8571 60.7967L15.5369 61.0977L15.8912 60.8256C16.2214 60.5721 16.2955 60.4956 16.2113 60.4956C16.1925 60.4956 16.0331 60.6311 15.8571 60.7967ZM65.6196 61.8235C65.6196 61.8474 65.7779 61.9138 65.9713 61.9713C66.1648 62.0285 66.2752 62.0373 66.2166 61.9907C66.0923 61.8918 65.6196 61.7596 65.6196 61.8235ZM38.2008 64.7798L37.8807 65.0809L38.2349 64.8088C38.5651 64.5552 38.6392 64.4788 38.5551 64.4788C38.5363 64.4788 38.3768 64.6143 38.2008 64.7798ZM70.5243 64.5077C70.5243 64.5237 70.6837 64.6592 70.8785 64.8088L71.2327 65.0809L70.9126 64.7798C70.6142 64.4992 70.5243 64.4362 70.5243 64.5077ZM36.5659 66.0767L36.2457 66.3777L36.6 66.1056C36.9302 65.852 37.0043 65.7756 36.9201 65.7756C36.9013 65.7756 36.7419 65.9111 36.5659 66.0767ZM72.1592 65.8046C72.1592 65.8205 72.3186 65.956 72.5134 66.1056L72.8677 66.3777L72.5475 66.0767C72.2491 65.796 72.1592 65.733 72.1592 65.8046ZM51.8155 67.5356C51.8155 67.9687 51.8343 68.1458 51.8572 67.9293C51.8801 67.7128 51.8801 67.3585 51.8572 67.1419C51.8343 66.9254 51.8155 67.1026 51.8155 67.5356ZM86.3581 67.1651C86.3581 67.3943 86.3793 67.4881 86.4052 67.3735C86.4314 67.2589 86.4314 67.0713 86.4052 66.9567C86.3793 66.842 86.3581 66.9358 86.3581 67.1651ZM97.0373 68.1377C97.0384 68.3415 97.0607 68.414 97.0869 68.2987C97.113 68.1836 97.112 68.0168 97.0847 67.9281C97.0575 67.8397 97.0359 67.9339 97.0373 68.1377ZM97.0373 69.3419C97.0384 69.5457 97.0607 69.6182 97.0869 69.5029C97.113 69.3878 97.112 69.221 97.0847 69.1323C97.0575 69.0439 97.0359 69.1381 97.0373 69.3419ZM85.1235 69.643L84.748 69.9903L85.1567 69.6712C85.5371 69.3739 85.6156 69.2956 85.5322 69.2956C85.5142 69.2956 85.3303 69.4519 85.1235 69.643ZM68.3989 70.1293C68.633 70.3331 68.8491 70.4998 68.879 70.4998C68.909 70.4998 68.742 70.3331 68.5079 70.1293C68.2738 69.9255 68.0578 69.7588 68.0278 69.7588C67.9978 69.7588 68.1648 69.9255 68.3989 70.1293ZM37.2779 73.4409L36.5727 74.0661L37.3084 73.4668C37.7131 73.137 38.0441 72.8557 38.0441 72.8415C38.0441 72.7732 37.9332 72.8601 37.2779 73.4409ZM71.9957 73.6493C72.2298 73.8531 72.4459 74.0198 72.4758 74.0198C72.5058 74.0198 72.3388 73.8531 72.1047 73.6493C71.8706 73.4455 71.6546 73.2787 71.6246 73.2787C71.5946 73.2787 71.7616 73.4455 71.9957 73.6493ZM49.9498 77.4471C49.9498 77.6255 49.9721 77.6984 49.9997 77.6093C50.0269 77.5201 50.0269 77.3742 49.9997 77.285C49.9721 77.1959 49.9498 77.2688 49.9498 77.4471ZM59.1203 78.5587C59.1203 79.0937 59.1383 79.3125 59.1603 79.045C59.1824 78.7776 59.1824 78.3399 59.1603 78.0724C59.1383 77.8049 59.1203 78.0238 59.1203 78.5587ZM67.064 81.1061C67.0651 81.3099 67.0874 81.3824 67.1136 81.267C67.1398 81.1519 67.1387 80.9852 67.1114 80.8965C67.0842 80.808 67.0626 80.9023 67.064 81.1061ZM55.4831 84.1166C55.2586 84.1777 55.2491 84.1921 55.4286 84.1986C55.5485 84.203 55.7202 84.1659 55.8101 84.1166C56.0011 84.0117 55.8684 84.0117 55.4831 84.1166ZM53.3305 93.7241C53.4954 93.7452 53.7651 93.7452 53.93 93.7241C54.0948 93.7028 53.96 93.6854 53.6303 93.6854C53.3005 93.6854 53.1657 93.7028 53.3305 93.7241ZM55.1848 93.7241C55.3507 93.7454 55.596 93.7449 55.7297 93.7229C55.8638 93.7009 55.7284 93.6833 55.4286 93.684C55.1289 93.6847 55.0191 93.7028 55.1848 93.7241Z" fill="#AC54B4"/>
</svg>
