<svg width="109" height="107" viewBox="0 0 109 107" fill="none" xmlns="http://www.w3.org/2000/svg">
<path d="M52.1109 5.13729C47.9361 5.89576 44.6452 7.99339 42.1424 11.4894C38.5853 16.5024 36.8813 24.3597 37.3073 33.9116C37.7013 43.1198 39.5118 49.3061 43.1009 53.7858C44.347 55.3382 46.4451 57.0566 47.9361 57.7558L48.2662 57.9099L49.278 56.4167C51.2909 53.4065 53.3996 49.626 54.848 46.4144L55.5402 44.8738L54.8054 44.9567C54.1877 45.0278 53.9853 45.0041 53.6019 44.8027C51.6317 43.819 49.6507 38.9838 49.1395 33.9353C48.7774 30.2615 49.4377 24.9996 50.6412 22.0487C52.0151 18.6712 54.6456 17.3557 56.8182 18.9674C59.6405 21.0651 61.2806 28.1638 60.3754 34.3501C59.4595 40.56 56.126 48.6306 51.4932 55.8952C49.9276 58.3365 47.116 62.2 46.8924 62.2C46.722 62.2 44.8688 60.4223 40.2467 55.8478C38.5959 54.2242 36.6576 52.3399 35.9334 51.6644C28.9576 45.1819 23.4728 42.4443 16.3692 41.911C12.7588 41.6384 10.2347 42.2666 7.44442 44.1153C3.99379 46.4144 1.42711 50.2423 0.340803 54.722C0.0106501 56.0493 0 56.1797 0 58.5262C0 60.8134 0.0106501 61.0267 0.287553 62.1289C0.905258 64.582 1.89572 66.9167 3.39738 69.4291C4.62214 71.4793 5.4848 72.6407 7.23141 74.6199C11.5447 79.5262 16.678 82.9985 22.5143 84.954C26.146 86.1628 30.9492 86.8146 33.9099 86.4946C38.3297 86.0205 43.0264 83.8163 47.8296 79.9291L48.3301 79.5262L49.6507 80.2965C50.3749 80.7231 51.5252 81.3631 52.1961 81.7068C52.8671 82.0504 53.4422 82.3586 53.4741 82.3823C53.4954 82.4178 53.2398 83.1289 52.8884 83.9703C51.0246 88.4026 49.2673 93.4748 48.181 97.516C47.7231 99.2344 47.116 101.759 47.116 101.948C47.116 101.996 50.0448 102.008 53.6232 101.996L60.1304 101.96L60.5777 99.9455C61.4404 96.1413 62.6439 92.1712 64.1455 88.2248C64.5609 87.1227 64.923 86.1983 64.9336 86.1746C64.9549 86.1509 65.7217 86.2694 66.6483 86.4353C71.6645 87.3123 77.9587 87.5019 81.8353 86.9094C91.3991 85.428 100.058 79.384 105.383 70.4601C107.055 67.6633 108.439 64.025 108.844 61.4178C109.43 57.5662 108.333 52.411 106.118 48.6306C104.648 46.13 102.859 44.3286 100.611 43.0724C98.5879 41.9347 96.8413 41.4725 94.1894 41.3777C92.1979 41.3066 90.9305 41.4133 89.1839 41.8162C79.897 43.9731 69.6942 53.4421 60.9398 68.0662C60.1198 69.4291 59.4275 70.5787 59.4062 70.6024C59.3743 70.6498 58.9909 70.4838 58.0537 70.0335L57.5531 69.7965L58.6927 68.2085C65.0082 59.4861 69.4493 49.2705 71.1213 39.6238C72.3674 32.3946 72.0266 24.4663 70.2161 18.7541C68.0008 11.762 63.8793 7.18752 58.1921 5.39801C57.1697 5.07804 56.9035 5.04248 55.0503 5.00693C53.6658 4.98323 52.7393 5.01878 52.1109 5.13729ZM94.8497 55.4093C96.0851 56.0612 96.852 57.1988 97.0863 58.775C97.2354 59.7705 97.0756 60.6001 96.5111 61.8563C94.7432 65.7908 88.9176 70.5313 83.124 72.7592C80.8129 73.6481 79.1621 74.0273 77.1493 74.134C75.8074 74.2051 71.6645 73.9918 71.2811 73.8258C71.0894 73.7547 71.1426 73.6244 71.8349 72.5104C75.2962 66.9048 79.3325 62.117 83.1666 59.0595C85.2114 57.4359 87.6503 56.0967 89.6312 55.5042C91.069 55.0775 91.7399 54.9827 93.0286 55.0183C94.0297 55.042 94.2214 55.0894 94.8497 55.4093ZM19.0637 55.7293C21.7794 56.4878 24.3674 58.0521 27.4985 60.8371C28.9044 62.0933 30.6403 63.7999 34.2827 67.5329C35.337 68.6114 36.5192 69.8083 36.9239 70.1876L37.6374 70.8986L37.0836 71.2305C35.3796 72.2734 33.42 73.0674 31.7479 73.3992C30.9172 73.5651 30.3528 73.5888 29.0322 73.5414C26.4655 73.4466 24.6124 72.9015 21.9285 71.4556C17.807 69.2276 14.1007 65.4709 12.5778 61.9867C12.237 61.1926 12.1411 60.8371 12.0985 60.1261C11.9814 58.1351 13.0464 56.1678 14.6013 55.5042C15.2509 55.2197 17.7005 55.3501 19.0637 55.7293Z" fill="#106724"/>
</svg>
