<svg width="109" height="107" viewBox="0 0 109 107" fill="none" xmlns="http://www.w3.org/2000/svg">
<path d="M46.6783 10.7229C43.9532 10.9423 41.441 11.329 39.0139 11.9141C24.5474 15.4041 12.7846 26.0934 8.09019 40.0219C6.94053 43.4387 6.1528 47.4616 6.01442 50.6694C5.98248 51.3904 5.92926 52.1114 5.90797 52.2681C5.86539 52.5503 5.87603 52.5607 6.33377 52.5607C6.64247 52.5607 6.81279 52.5189 6.81279 52.4249C6.81279 52.3622 6.88731 51.8502 6.97247 51.3068C7.93052 45.1419 12.7421 40.2413 19.0226 39.0084C20.449 38.7262 23.3338 38.7576 24.7709 39.0606C26.8041 39.489 28.486 40.1995 30.2637 41.3489C31.1898 41.955 33.4146 44.1075 34.0533 45.0061L34.5004 45.6644H28.1134H21.7158V53.5011V61.3379H28.1134H34.5004L34.0533 61.9857C33.4146 62.8948 31.1898 65.0473 30.2637 65.6533C28.486 66.8027 26.8041 67.5132 24.7709 67.9416C23.3338 68.2447 20.449 68.276 19.0226 67.9939C12.7421 66.7609 7.93052 61.8499 6.97247 55.6954C6.88731 55.1521 6.81279 54.6401 6.81279 54.5669C6.81279 54.4833 6.65312 54.4415 6.35506 54.4415H5.90797L5.9399 55.2984C6.17409 61.9335 8.20729 68.8612 11.6563 74.8171C15.9143 82.1627 22.7909 88.4426 30.6044 92.1206C35.1072 94.2418 39.9613 95.5897 45.188 96.1539C46.838 96.3316 52.3415 96.3316 53.9169 96.1539C58.2707 95.6628 62.0284 94.7538 65.7754 93.2909C79.1988 88.056 89.2796 76.3217 92.2283 62.4873L92.4625 61.3901L98.7643 61.3588L105.066 61.3379V53.5011V45.6644L98.7643 45.6435L92.4625 45.6121L92.2283 44.515C89.3541 31.0149 79.6778 19.5001 66.6696 14.0666C62.9013 12.4888 58.9094 11.4543 54.5024 10.9214C53.225 10.7647 47.8918 10.6289 46.6783 10.7229Z" fill="#571E21"/>
</svg>
