<svg width="109" height="107" viewBox="0 0 109 107" fill="none" xmlns="http://www.w3.org/2000/svg">
<path d="M50.7355 0.052121C50.3955 0.0873126 49.268 0.210483 48.2299 0.316058C38.9772 1.26623 29.4201 5.03174 21.6886 10.7328C13.4559 16.8385 7.08456 25.1965 3.45145 34.6983C-2.16823 49.3732 -0.861745 66.2124 6.90559 79.7084C14.1002 92.1838 26.0018 101.369 39.9257 105.152C45.1338 106.577 48.6774 107.017 54.6729 106.999C59.8094 106.982 62.2434 106.736 66.6102 105.768C82.8071 102.196 96.8384 91.0753 103.89 76.2068C110.1 63.1683 110.673 48.0887 105.483 34.5399C102.494 26.7098 97.2322 19.1612 90.9324 13.6713C82.5387 6.35142 72.6237 1.86449 61.5633 0.386441C59.5409 0.122504 52.2031 -0.106241 50.7355 0.052121ZM59.9525 5.66519C64.57 6.35142 68.4894 7.60073 72.3731 9.64184C83.2903 15.3605 90.7534 25.918 92.3463 37.8831C92.6863 40.4169 92.6863 45.203 92.3642 47.6312C89.9659 65.1391 75.8988 78.4591 58.0018 80.1659C40.5163 81.8375 23.8362 71.1216 18.2881 54.6695C16.9101 50.5873 16.3731 47.2441 16.3731 42.7044C16.391 35.8068 18.1092 29.5075 21.5633 23.8065C28.0599 13.1082 38.8519 6.50979 51.8094 5.33087C53.2948 5.2077 58.1449 5.40125 59.9525 5.66519Z" fill="#C9003C"/>
<path d="M50.825 10.9263C45.5812 11.7885 41.2143 13.9352 37.5096 17.4368C36.5968 18.3166 35.4514 19.5483 34.9861 20.1641C29.4738 27.4136 28.4358 36.9505 32.3194 44.9742C37.2053 55.0918 48.2657 60.5641 59.3619 58.3471C69.1158 56.4115 76.6147 48.9685 78.6013 39.238C78.834 38.1119 78.9055 36.8626 78.9055 34.6103C78.9055 31.9181 78.8519 31.2847 78.4402 29.5603C77.3127 24.827 75.2724 21.2199 71.7825 17.7887C68.2389 14.3047 64.2836 12.1756 59.3261 11.1199C57.4827 10.7328 52.6863 10.6272 50.825 10.9263Z" fill="#C9003C"/>
</svg>
