<svg width="109" height="107" viewBox="0 0 109 107" fill="none" xmlns="http://www.w3.org/2000/svg">
<path d="M50.138 0.117182C38.5988 1.08894 28.3796 5.21629 19.3739 12.5201C17.7985 13.8054 14.0621 17.473 12.7527 19.0194C9.14407 23.314 6.4083 27.6607 4.31124 32.4986C1.68192 38.5486 0.212914 45.0374 0.0319486 51.38L-0.0319214 53.6056H0.649359C1.75644 53.6056 4.80091 53.8982 6.69572 54.1908C25.7396 57.0747 41.8774 69.7493 49.0202 87.4081C51.3196 93.0924 52.7992 100.334 52.7992 105.924V107H54.4811H56.1737L56.2376 105.088C56.6101 94.2 60.4423 83.6256 67.1593 74.8693C70.1399 70.9927 74.1637 67.0744 78.2408 64.0755C86.6397 57.9106 97.1889 54.1594 107.6 53.6474L109.005 53.5743V52.101C109.005 47.4512 107.972 41.6206 106.29 36.626C102.565 25.6545 95.1876 15.9892 85.5219 9.44814C78.0279 4.38037 69.597 1.28747 60.4636 0.263468C58.6646 0.054488 51.937 -0.039553 50.138 0.117182Z" fill="#199332"/>
</svg>
